<?xml version="1.0" encoding="utf-8"?>
<!-- Generator: Adobe Illustrator 17.1.0, SVG Export Plug-In . SVG Version: 6.00 Build 0)  -->
<!DOCTYPE svg PUBLIC "-//W3C//DTD SVG 1.1//EN" "http://www.w3.org/Graphics/SVG/1.1/DTD/svg11.dtd">
<svg version="1.1" style="max-height: 100%" id="Layer_1" xmlns="http://www.w3.org/2000/svg" xmlns:xlink="http://www.w3.org/1999/xlink" x="0px" y="0px"
	 width="1638px" height="468px" viewBox="0 0 1638 468" enable-background="new 0 0 1638 468" xml:space="preserve">
<g>
	<g>
		<path fill="#FFFFFF" d="M1194,252.2c0-6.2,0-11.2,0-15.6c0-23.6,0-46.9,0-70.5c0.2-52.3-52.3-75.5-89.8-53.3
			c-10.2,6-21.1,11-31.5,16.4c-1-1-1.7-1.4-2.3-1.9c-22.6-25.1-49.3-29.7-79-13.7c-6.4,3.5-12.7,6.8-20.5,10.8c0-6.4,0-11.2,0-15.8
			c-11.6,0-22.2,0-33.4,0c0,3.7,0,6.8,0,9.8c0,26.7,0,53.3,0,80c0,4.6-1,7.7-5.6,10c-29.4,15.1-58.3,30.7-87.5,45.8
			c-29.2,14.9-60.3,7.7-80.2-17.8c-19.3-24.7-14.9-63,9.7-83.4c25.9-21.6,62.4-19.9,85,4.4c-2.5,1.4-5,2.7-7.5,4.1
			c-23.6,12.4-47.3,24.7-70.9,37.3c-2.5,1.4-5.6,4.1-5.8,6.2c-0.6,11.2,4.8,18.5,8.9,29c9.9-5.4,16.8-7.7,20.1-9.5
			c17.6-9.3,35.3-18.5,52.9-27.8c8.9-4.6,17.6-9.3,26.7-13.3c8.3-3.9,20.9-7.1,19.9-18.5c-0.6-8.9-7.5-16.2-12.9-22.8
			c-22.8-27.4-59.7-42.9-93.7-35.7c-55,11.6-86.9,60.5-75.5,115.7c0.4,2.3-0.4,6.2-1.7,7.1c-13.5,7.5-27.2,14.7-42.7,22.8
			c0-49.1,0-96,0-143.3c-11.6,0-22,0-33.4,0c0,3.5,0,6.6,0,9.5c0,34.8,0,69.7-0.2,104.5c0,2.9-1,7.3-2.9,8.7
			c-12.2,7.1-24.7,13.3-38.4,20.7c-0.4-5-1-8.9-1-12.7c0-22,0-44.2,0-66.2c-0.4-54.1-51.6-84.2-99.5-58.5c-6,3.3-12.2,6.4-19.7,10.4
			c0-6.6,0-11.2,0-15.8c-11.6,0-22.2,0-33.4,0c0,30.3,0.2,60.1-0.2,89.8c0,3.1-2.3,7.7-4.8,9.1c-29.7,16-59.5,31.9-89.6,47.1
			c-24.1,12.4-49.4,8.5-70.5-9.7c-18.2-15.6-24.5-42.5-16-66.8c14.9-42.3,72.6-54.3,102.7-20.9c-2.5,1.4-5,2.7-7.5,3.9
			c-23.6,12.4-47.3,24.7-70.9,37.3c-0.2,0.2-7.7,2.7-5.6,6.2l15.6,26.3c5.4-2.9,10.8-5.8,16.2-8.7c19.1-10,38-20.1,57.2-30.1
			c8.3-4.4,16.2-9.3,25.1-12.6c5-1.9,11.6-6,12.7-12.4c1-5.8-1.4-10.6-4.2-14.9c-4.2-6-7.9-12.4-12.7-17.8
			c-16.6-18.7-41.7-29.7-66.6-30.9c-23.8-1.2-51.4,9.5-68.8,25.9c-29,27.4-39.6,55.6-28.2,94.1l-0.6,1.2
			c-15.1,7.9-27.8,15.8-48.7,27c0-16.4,0.4-15.6,0.4-29.9c0-14.7,0-29.4,0-44.2c-11.8,0-22.4,0-33.8,0c0,18.9-0.2,37.3,0.2,55.6
			c0.2,5.6-1.9,8.7-6.4,11.6c-27,17-61.6,10.6-82.5-15.5c-15.3-18.9-16.6-46.9-3.7-69.3c11.8-20.3,38.2-32.6,61-29.4
			c20.9,2.9,36.3,13.9,47.5,31.9c9.7-5,19.3-9.9,28.8-14.9c-18.5-41.3-73.6-61.8-118.2-44.8c-47.7,18.2-73,69.7-57.4,117.6
			c17.6,54.1,66.2,76.3,130,59.3c2.1,8.9-0.2,15.6-7.5,22.2c-12,10.8-23.4,22.4-33.6,35c-16,19.9-24.7,42.3-20.1,68.6
			c4.6,26.1,25.1,43.3,50.6,41.9c22.8-1.2,42.7-21.4,43.6-46.5c1.2-28,0.8-56,1.4-84c0-2.9-2.1-18,0-19.1
			c26.3-16.2,41.9-25.5,66.2-38.6c1.5,2.5,7.7,8.3,9.3,9.8c25.1,23.2,54.7,30.1,82.5,23.8c17.2-3.9,33.4-12.4,49.4-20.1
			c19.1-9.3,37.5-19.7,57.7-30.5c0,17.4,0,33.4,0,49.1c11.6,0,22,0,33.4,0c0-3.5,0-6.6,0-9.5c0-37.5-0.2-74.7,0.2-112.2
			c0-3.3,1.7-8.1,4.2-9.7c10.8-6.6,22-13.1,33.8-18.2c6.4-2.7,14.5-4.4,21.2-3.5c16.6,2.5,25.9,15.3,26.1,33.6
			c0.2,24.1,0,48.1,0.2,72.2c0,14.5,1,35.2,14.3,44c12.2,7.9,25.9-1,36.5-7.1c7-4.1,15.1-10,22.8-12.7c7-2.3,2.9,19.3,15.8,24.5
			c11.2,4.4,37.5-13.9,49.3-20.5c2.9-1.5,28.6-18.2,31.3-15.3c1.9,2.1,3.3,3.5,4.6,5c24.1,26.3,54.1,38,89.2,30.5
			c16.6-3.5,32.3-12.2,47.7-19.7c19.3-9.3,38-19.9,58.5-30.7c0,17.4,0,33.2,0,49.1c11.6,0,22,0,33.4,0c0-3.5,0-6.6,0-9.5
			c0-37.5,0.2-74.7-0.2-112.2c0-7,5.2-10.6,10.8-13.7c13.3-7.3,28-17.6,43.8-17.2c14.5,0.4,24.1,13.7,23.8,27.8
			c-1.4,38.4-0.4,77.1-0.4,115.5c0,3.1,0,6,0,9.3c11.8,0,22.6,0,34,0c0-3.5,0-6.6,0-9.7c0-37.5,0.2-74.7-0.2-112.2
			c-0.2-14.7,19.9-23.4,30.9-27.2c12.2-4.4,23.4-8.1,33.8-1.9c8.1,4.8,12.4,15.6,12.4,24.9c0.4,27.2,0,50.6,0,76.1
			c0,29.4,1.9,51,25.9,50c11.6-0.4,32.4-14.1,45.8-22.4c4.4-2.7,20.9-12.2,20.9-12.6c0-11.2,0-22.8,0-35.3
			C1232.6,231.5,1214.2,241.6,1194,252.2z M148.5,399c-0.4,9.7-7.9,16.2-14.9,15.6s-12.6-7.7-13.7-17.2c-1.2-11.2,1.4-21.4,7.3-30.7
			c6-9.1,12.9-17.4,19.5-26.1c0.6,0.4,1.2,0.6,1.7,1C148.9,360.9,149.5,380,148.5,399z"/>
		<path fill="#FFFFFF" d="M660.5,75.8c14.9-0.2,27.2-13.1,27.2-28.2c-0.2-15.1-12.7-27.8-27.6-27.8c-15.1,0-28.4,13.3-28.2,28.2
			C631.9,63.3,645.1,76,660.5,75.8z"/>
		<polygon fill="#FFFFFF" points="1619.8,46.1 1418.4,94.4 1418.4,94.4 1398.9,94.4 1310,94.4 1310,94 1309.7,94.4 1309.5,94.4 
			1226.2,46.1 1259.6,133 1259.8,133.2 1304.6,181.9 1284.9,203.3 1456.4,203.3 1434.4,181.9 		"/>
		<polygon fill="#FFFFFF" points="1416.8,78.9 1364.5,28.5 1312.2,78.9 1364.5,78.9 		"/>
	</g>
	<g>
		<polygon fill="#FFFFFF" points="1619.8,46.3 1418.4,94.4 1418.4,94.4 1398.9,94.4 1310,94.4 1310,94 1309.7,94.4 1309.5,94.4 
			1226.2,46.3 1259.6,133.2 1259.8,133.2 1304.6,181.9 1284.9,203.3 1456.4,203.3 1434.4,181.9 		"/>
		<polygon fill="#FFFFFF" points="1416.8,79.1 1364.5,28.5 1312.2,79.1 1364.5,79.1 		"/>
	</g>
	<path fill="#FFFFFF" d="M1619.8,46.1l-185.4,135.8L1619.8,46.1z"/>
	<path fill="#FFFFFF" d="M1456.4,203.3l-22-21.4L1456.4,203.3z"/>
	<polygon fill="#FFFFFF" points="1364.5,78.9 1312.2,78.9 1312.2,78.9 1364.5,78.9 1416.8,78.9 1364.5,28.5 1364.5,28.5 
		1416.8,78.9 	"/>
</g>
</svg>
