<svg id="Layer_1" data-name="Layer 1" xmlns="http://www.w3.org/2000/svg" width="787" height="122" viewBox="0 0 787 122"><title>perus-artboard-ei-reponsive</title><path d="M787,13.54c-19.79,0-20.29-12-39.83-12-19.79,0-19.78,12-39.32,12-19.79,0-19.79-12-39.33-12-19.78,0-19.78,12-39.32,12s-19.79-12-39.33-12c-19.78,0-19.78,12-39.32,12-19.79,0-19.79-12-39.33-12s-19.78,12-39.32,12c-19.79,0-19.79-12-39.33-12-19.78,0-19.78,12-39.32,12-19.79,0-19.79-12-39.33-12-19.78,0-19.78,12-39.32,12s-19.79-12-39.33-12c-19.78,0-19.78,12-39.32,12-19.79,0-19.79-12-39.33-12-19.78,0-19.78,12-39.32,12-19.79,0-19.79-12-39.32-12s-19.79,12-39.33,12c-19.79,0-19.79-12-39.33-12-19.78,0-19.78,12-39.32,12V122H787Z"/></svg>