<?xml version="1.0" encoding="UTF-8"?>
<svg width="805px" height="536px" viewBox="0 0 805 536" version="1.1" xmlns="http://www.w3.org/2000/svg" xmlns:xlink="http://www.w3.org/1999/xlink">
    <!-- Generator: Sketch 63.1 (92452) - https://sketch.com -->
    <title>Group</title>
    <desc>Created with Sketch.</desc>
    <defs>
        <polygon id="path-1" points="0.41921006 0.672014458 122.492228 0.672014458 122.492228 105.324359 0.41921006 105.324359"></polygon>
        <polygon id="path-3" points="0.305369218 0.0673112129 35.830587 0.0673112129 35.830587 33.9903892 0.305369218 33.9903892"></polygon>
        <polygon id="path-5" points="0.41921006 0.672014458 122.492228 0.672014458 122.492228 105.324359 0.41921006 105.324359"></polygon>
        <polygon id="path-7" points="0.305369218 0.0673112129 35.830587 0.0673112129 35.830587 33.9903892 0.305369218 33.9903892"></polygon>
    </defs>
    <g id="Page-1" stroke="none" stroke-width="1" fill="none" fill-rule="evenodd">
        <g id="Group" transform="translate(-3.304791, -20.442885)">
            <path d="M726.257923,56.8145464 C729.770246,56.8145464 732.6261,59.6704003 732.6261,63.1785429 C732.6261,66.6866855 729.770246,69.5425394 726.257923,69.5425394 C722.745599,69.5425394 719.898107,66.6866855 719.898107,63.1785429 C719.898107,59.6704003 722.745599,56.8145464 726.257923,56.8145464 M726.257923,72.6785429 C731.50132,72.6785429 735.762104,68.4177594 735.762104,63.1785429 C735.762104,57.9435077 731.50132,53.6785429 726.257923,53.6785429 C721.022887,53.6785429 716.762104,57.9435077 716.762104,63.1785429 C716.762104,68.4177594 721.022887,72.6785429 726.257923,72.6785429" id="Fill-1" fill="#FEFEFE" fill-rule="nonzero" transform="translate(726.262104, 63.178543) rotate(30.000000) translate(-726.262104, -63.178543) "></path>
            <path d="M750.506634,70.8145464 C754.018957,70.8145464 756.874811,73.6704003 756.874811,77.1785429 C756.874811,80.6866855 754.018957,83.5425394 750.506634,83.5425394 C747.002672,83.5425394 744.146818,80.6866855 744.146818,77.1785429 C744.146818,73.6704003 747.002672,70.8145464 750.506634,70.8145464 M750.506634,86.6785429 C755.750031,86.6785429 760.010815,82.4177594 760.010815,77.1785429 C760.010815,71.9435077 755.750031,67.6785429 750.506634,67.6785429 C745.271598,67.6785429 741.010815,71.9435077 741.010815,77.1785429 C741.010815,82.4177594 745.271598,86.6785429 750.506634,86.6785429" id="Fill-3" fill="#FEFEFE" fill-rule="nonzero" transform="translate(750.510815, 77.178543) rotate(30.000000) translate(-750.510815, -77.178543) "></path>
            <path d="M774.763707,84.8145464 C778.276031,84.8145464 781.123522,87.6704003 781.123522,91.1785429 C781.123522,94.6866855 778.276031,97.5425394 774.763707,97.5425394 C771.251383,97.5425394 768.395529,94.6866855 768.395529,91.1785429 C768.395529,87.6704003 771.251383,84.8145464 774.763707,84.8145464 M774.763707,100.678543 C779.998742,100.678543 784.259526,96.4177594 784.259526,91.1785429 C784.259526,85.9435077 779.998742,81.6785429 774.763707,81.6785429 C769.520309,81.6785429 765.259526,85.9435077 765.259526,91.1785429 C765.259526,96.4177594 769.520309,100.678543 774.763707,100.678543" id="Fill-5" fill="#FEFEFE" fill-rule="nonzero" transform="translate(774.759526, 91.178543) rotate(30.000000) translate(-774.759526, -91.178543) "></path>
            <g id="Group-9" transform="translate(746.528764, 80.075657) rotate(30.000000) translate(-746.528764, -80.075657) translate(685.028764, 27.075657)">
                <g id="Fill-7-Clipped">
                    <g>
                        <mask id="mask-2" fill="white">
                            <use xlink:href="#path-1"></use>
                        </mask>
                        <g id="path-1"></g>
                        <path d="M61.4557191,3.92603566 C93.3202399,3.92603566 119.245605,22.2977513 119.245605,44.8813706 C119.245605,54.6382236 114.245806,64.1128357 105.185564,71.5639971 L104.31114,72.2847971 L113.003432,97.6343778 L87.3767557,81.4337465 L86.6408546,81.6855923 C78.6628201,84.4385272 70.1912989,85.8367055 61.4557191,85.8367055 C29.5911983,85.8367055 3.66583288,67.4649899 3.66583288,44.8813706 C3.66583288,22.2977513 29.5911983,3.92603566 61.4557191,3.92603566 M61.4557191,89.093332 C70.2735467,89.093332 78.8576175,87.7212067 86.9655169,85.0160357 L119.076781,105.324359 L108.107525,73.3529706 C117.392866,65.3807489 122.492228,55.3112598 122.492228,44.8813706 C122.492228,20.5000935 95.1123757,0.669409157 61.4557191,0.669409157 C27.8077202,0.669409157 0.41921006,20.5000935 0.41921006,44.8813706 C0.41921006,69.2583055 27.8077202,89.093332 61.4557191,89.093332" id="Fill-7" fill="#FEFEFE" fill-rule="nonzero" mask="url(#mask-2)"></path>
                    </g>
                </g>
            </g>
            <path d="M426.404893,441.228264 C424.902732,441.659898 422.990498,441.603786 421.125747,441.085825 C419.265312,440.567865 417.594806,439.618271 416.541567,438.474442 C415.682572,437.546429 415.302716,436.57957 415.52286,435.815579 C415.842285,434.654484 417.586173,433.773952 419.973227,433.773952 C420.918552,433.773952 421.954525,433.912074 423.05093,434.218534 C424.902732,434.736495 426.573238,435.686089 427.63511,436.825601 C428.494105,437.753614 428.865328,438.724789 428.653817,439.488781 C428.446623,440.24414 427.617844,440.882957 426.404893,441.228264 L426.404893,441.228264 Z M393.365988,390.38614 L420.13294,404.103456 L417.284014,413.046905 L390.517063,399.325272 L393.365988,390.38614 Z M390.784689,423.082387 C392.640807,423.600347 394.306997,424.549941 395.373186,425.689454 C396.23218,426.617466 396.603404,427.588642 396.391893,428.352633 C396.249446,428.861961 395.860956,429.293595 395.226423,429.647534 C393.711312,430.519434 391.263826,430.623026 388.863822,429.949678 C386.999071,429.431717 385.328565,428.482123 384.275325,427.342611 C383.416331,426.410282 383.036474,425.443423 383.256619,424.679431 C383.701224,423.056489 386.917056,422.003303 390.784689,423.082387 L390.784689,423.082387 Z M423.918557,431.097823 C421.212078,430.346781 418.600563,430.385628 416.53725,431.067609 L419.809198,415.783462 L424.043738,402.476198 L391.440805,385.754711 L386.601948,400.952531 L386.640797,400.969796 L380.140067,423.798899 C380.13575,423.803215 380.13575,423.807531 380.13575,423.811848 C379.604814,425.706719 380.230714,427.74403 381.896904,429.543942 C383.373166,431.128038 385.531443,432.379775 387.996195,433.066072 C389.308427,433.437277 390.642243,433.618564 391.915626,433.618564 C393.763111,433.618564 395.472467,433.230093 396.819231,432.470418 C398.204845,431.689161 399.132904,430.562597 399.512761,429.220217 C400.035064,427.351243 399.383265,425.266453 397.738657,423.492439 C396.275346,421.899711 394.108435,420.647973 391.652316,419.961676 C389.0926,419.24948 386.63648,419.271062 384.624966,419.853767 L389.576054,402.471881 L416.407754,416.236677 L412.376092,435.042954 L412.389042,435.042954 C411.914221,436.88603 412.548754,438.931973 414.163145,440.675773 C415.639407,442.264185 417.797684,443.515923 420.25812,444.20222 C421.574669,444.569109 422.904167,444.754711 424.177551,444.754711 C425.273955,444.754711 426.327195,444.616588 427.289786,444.344659 C429.616409,443.675627 431.252383,442.221022 431.774686,440.356364 C432.296989,438.487391 431.649506,436.4026 430.004899,434.628586 C428.53727,433.040174 426.37036,431.784121 423.918557,431.097823 L423.918557,431.097823 Z" id="Fill-10" fill="#FEFEFE" fill-rule="nonzero" transform="translate(405.951560, 415.254711) rotate(30.000000) translate(-405.951560, -415.254711) "></path>
            <path d="M506.125493,534.734701 C502.277677,535.802061 499.079046,534.76042 498.627627,533.148663 C498.180506,531.532619 500.364518,528.986385 504.220932,527.914737 C505.312938,527.61039 506.344754,527.477505 507.277688,527.477505 C509.650866,527.477505 511.392057,528.347683 511.718799,529.500775 C512.16162,531.116819 509.977608,533.663053 506.125493,534.734701 M519.736873,504.329924 C516.009436,504.364217 513.288019,504.338497 505.897634,496.382588 L504.715344,497.475668 L503.154722,497.891467 L510.420429,524.721229 C508.404088,524.121106 505.927728,524.10396 503.352486,524.81982 C497.948347,526.320126 494.50466,530.358093 495.519279,534.010267 C496.293142,536.753684 499.332701,538.382588 503.094532,538.382588 C504.328413,538.382588 505.656877,538.206838 506.98964,537.833905 C512.398078,536.329312 515.833167,532.299918 514.822847,528.652031 L507.806494,502.718167 C513.275122,507.476281 516.426461,507.566299 520.046418,507.544866 C526.486672,507.544866 529.19949,514.647744 529.31127,514.952092 L532.342231,513.846152 C532.196057,513.460359 528.756669,504.329924 519.736873,504.329924" id="Fill-12" fill="#FEFEFE" fill-rule="nonzero" transform="translate(513.842231, 517.382588) rotate(30.000000) translate(-513.842231, -517.382588) "></path>
            <path d="M378.551585,378.084097 C375.039261,378.084097 372.183408,375.228244 372.183408,371.720101 C372.183408,368.211958 375.039261,365.356105 378.551585,365.356105 C382.055547,365.356105 384.911401,368.211958 384.911401,371.720101 C384.911401,375.228244 382.055547,378.084097 378.551585,378.084097 M378.551585,362.220101 C373.308188,362.220101 369.047404,366.480884 369.047404,371.720101 C369.047404,376.955136 373.308188,381.220101 378.551585,381.220101 C383.786621,381.220101 388.047404,376.955136 388.047404,371.720101 C388.047404,366.480884 383.786621,362.220101 378.551585,362.220101" id="Fill-14" fill="#FEFEFE" fill-rule="nonzero" transform="translate(378.547404, 371.720101) rotate(30.000000) translate(-378.547404, -371.720101) "></path>
            <path d="M376.924652,464.902718 C373.412328,464.902718 370.556475,462.047493 370.556475,458.540122 C370.556475,455.028571 373.412328,452.173346 376.924652,452.173346 C380.428614,452.173346 383.284467,455.028571 383.284467,458.540122 C383.284467,462.047493 380.428614,464.902718 376.924652,464.902718 M376.924652,449.038032 C371.681254,449.038032 367.420471,453.302058 367.420471,458.540122 C367.420471,463.774006 371.681254,468.038032 376.924652,468.038032 C382.159688,468.038032 386.420471,463.774006 386.420471,458.540122 C386.420471,453.302058 382.159688,449.038032 376.924652,449.038032" id="Fill-16" fill="#FEFEFE" fill-rule="nonzero" transform="translate(376.920471, 458.538032) rotate(30.000000) translate(-376.920471, -458.538032) "></path>
            <path d="M667.736107,406.459336 C671.248431,406.459336 674.104284,409.315189 674.104284,412.819151 C674.104284,416.331475 671.248431,419.187328 667.736107,419.187328 C664.223783,419.187328 661.376292,416.331475 661.376292,412.819151 C661.376292,409.315189 664.223783,406.459336 667.736107,406.459336 M667.736107,422.323332 C672.979505,422.323332 677.240288,418.058367 677.240288,412.819151 C677.240288,407.584115 672.979505,403.323332 667.736107,403.323332 C662.501071,403.323332 658.240288,407.584115 658.240288,412.819151 C658.240288,418.058367 662.501071,422.323332 667.736107,422.323332" id="Fill-18" fill="#FEFEFE" fill-rule="nonzero" transform="translate(667.740288, 412.823332) rotate(30.000000) translate(-667.740288, -412.823332) "></path>
            <path d="M777.751247,183.252713 C777.751247,179.743798 780.610652,176.891498 784.118023,176.891498 C787.621214,176.891498 790.480619,179.743798 790.480619,183.252713 C790.480619,186.76581 787.621214,189.61811 784.118023,189.61811 C780.610652,189.61811 777.751247,186.76581 777.751247,183.252713 M793.615933,183.252713 C793.615933,178.012343 789.351907,173.754804 784.118023,173.754804 C778.879959,173.754804 774.615933,178.012343 774.615933,183.252713 C774.615933,188.493083 778.879959,192.754804 784.118023,192.754804 C789.351907,192.754804 793.615933,188.493083 793.615933,183.252713" id="Fill-20" fill="#FEFEFE" fill-rule="nonzero" transform="translate(784.115933, 183.254804) rotate(30.000000) translate(-784.115933, -183.254804) "></path>
            <path d="M592.982649,104.671359 C589.468778,104.671359 586.620033,101.815506 586.620033,98.3115436 C586.620033,94.7992196 589.468778,91.9433666 592.982649,91.9433666 C596.49652,91.9433666 599.345265,94.7992196 599.345265,98.3115436 C599.345265,101.815506 596.49652,104.671359 592.982649,104.671359 M592.982649,88.8073626 C587.736942,88.8073626 583.482649,93.0723276 583.482649,98.3115436 C583.482649,103.54658 587.736942,107.807363 592.982649,107.807363 C598.219989,107.807363 602.482649,103.54658 602.482649,98.3115436 C602.482649,93.0723276 598.219989,88.8073626 592.982649,88.8073626" id="Fill-22" fill="#FEFEFE" fill-rule="nonzero" transform="translate(592.982649, 98.307363) rotate(30.000000) translate(-592.982649, -98.307363) "></path>
            <path d="M560.741262,380.508527 C557.2373,380.508527 554.381447,377.653302 554.381447,374.145931 C554.381447,370.63438 557.2373,367.779155 560.741262,367.779155 C564.253586,367.779155 567.109439,370.63438 567.109439,374.145931 C567.109439,377.653302 564.253586,380.508527 560.741262,380.508527 M560.741262,364.643841 C555.506226,364.643841 551.245443,368.907867 551.245443,374.145931 C551.245443,379.379815 555.506226,383.643841 560.741262,383.643841 C565.98466,383.643841 570.245443,379.379815 570.245443,374.145931 C570.245443,368.907867 565.98466,364.643841 560.741262,364.643841" id="Fill-24" fill="#FEFEFE" fill-rule="nonzero" transform="translate(560.745443, 374.143841) rotate(30.000000) translate(-560.745443, -374.143841) "></path>
            <path d="M628.875237,247.767649 C632.387561,247.767649 635.243414,250.622874 635.243414,254.130245 C635.243414,257.641796 632.387561,260.497021 628.875237,260.497021 C625.362913,260.497021 622.515422,257.641796 622.515422,254.130245 C622.515422,250.622874 625.362913,247.767649 628.875237,247.767649 M628.875237,263.632335 C634.118635,263.632335 638.379418,259.368309 638.379418,254.130245 C638.379418,248.896361 634.118635,244.632335 628.875237,244.632335 C623.640201,244.632335 619.379418,248.896361 619.379418,254.130245 C619.379418,259.368309 623.640201,263.632335 628.875237,263.632335" id="Fill-26" fill="#FEFEFE" fill-rule="nonzero" transform="translate(628.879418, 254.132335) rotate(30.000000) translate(-628.879418, -254.132335) "></path>
            <path d="M633.93227,284.025997 C641.997099,296.406786 647.694983,310.031248 650.905422,324.296912 C626.233241,331.599727 599.323221,311.765505 599.056401,311.558943 L597.111202,314.140964 C598.096713,314.881143 617.505667,329.241481 639.217014,329.241481 C643.279554,329.241481 647.419557,328.694953 651.538042,327.507224 C652.291161,331.324311 652.850621,335.184432 653.242243,339.074676 C621.959828,341.015495 604.414306,364.761478 603.661187,365.794286 L606.282041,367.679161 C606.458486,367.442476 623.698458,344.092403 653.59083,342.284989 C653.823221,345.387717 653.948023,348.503355 653.948023,351.64051 C653.948023,363.078861 652.360018,374.388111 649.291596,385.284238 C647.479806,385.482193 645.642196,385.598384 643.778764,385.598384 C615.504522,385.598384 592.506417,362.596884 592.506417,334.323758 C592.506417,309.42017 610.357491,288.6306 633.93227,284.025997 M680.716027,298.859705 C680.29428,301.876366 677.083841,314.88975 653.978148,323.29853 C650.78062,309.226518 645.190324,295.791404 637.383707,283.496683 C639.483833,283.229874 641.605478,283.053436 643.778764,283.053436 C658.285989,283.053436 671.381654,289.138398 680.716027,298.859705 M690.480754,355.367226 C685.863058,350.79705 672.319825,338.932665 656.4742,338.936968 C656.06106,334.749792 655.454261,330.601345 654.632286,326.500236 C675.698102,318.965039 681.69293,307.483654 683.358399,301.777389 C690.661502,310.638023 695.051111,321.977396 695.051111,334.323758 C695.051111,341.828832 693.389945,348.937995 690.480754,355.367226 M652.760247,384.754924 C655.652224,374.000808 657.175677,362.88521 657.175677,351.64051 C657.175677,348.468928 657.055177,345.310256 656.822786,342.168798 C672.263879,342.315112 685.699524,355.057384 688.99173,358.452741 C681.705841,372.055686 668.450945,381.966342 652.760247,384.754924 M643.778764,388.82591 C673.830367,388.82591 698.278764,364.378478 698.278764,334.323758 C698.278764,304.273342 673.830367,279.82591 643.778764,279.82591 C613.722857,279.82591 589.278764,304.273342 589.278764,334.323758 C589.278764,364.378478 613.722857,388.82591 643.778764,388.82591" id="Fill-31" fill="#FEFEFE" fill-rule="nonzero" transform="translate(643.778764, 334.325910) rotate(30.000000) translate(-643.778764, -334.325910) "></path>
            <path d="M614.563079,96.7022349 L682.083597,96.7022349 L682.083597,147.718009 L659.530681,147.718009 L648.316859,170.196822 L637.115995,147.718009 L614.563079,147.718009 L614.563079,96.7022349 Z M648.316859,177.454477 L661.530681,150.965767 L685.323338,150.965767 L685.323338,93.4544769 L611.323338,93.4544769 L611.323338,150.965767 L635.115995,150.965767 L648.316859,177.454477 Z" id="Fill-33" fill="#FEFEFE" fill-rule="nonzero" transform="translate(648.323338, 135.454477) rotate(30.000000) translate(-648.323338, -135.454477) "></path>
            <path d="M638.109019,117.068623 C638.109019,113.238835 641.315844,110.119686 645.254281,110.119686 C647.641876,110.119686 650.927558,113.76224 652.43459,116.055857 L653.818957,118.16224 L655.203324,116.055857 C656.719118,113.76224 660.0048,110.119686 662.392395,110.119686 C666.326451,110.119686 669.537657,113.238835 669.537657,117.068623 C669.537657,118.677133 668.954996,120.204793 667.807198,121.545218 L653.613054,139.621814 L639.905192,121.711176 C639.213008,120.549474 638.109019,118.264367 638.109019,117.068623 L638.109019,117.068623 Z M670.37441,123.540963 C671.973442,121.672878 672.823338,119.43458 672.823338,117.068623 C672.823338,111.481388 668.140147,106.928197 662.392395,106.928197 C658.892049,106.928197 655.61513,110.247346 653.818957,112.464367 C652.022785,110.247346 648.754627,106.928197 645.254281,106.928197 C639.502148,106.928197 634.823338,111.481388 634.823338,117.068623 C634.823338,119.511176 636.834175,122.936708 637.167124,123.464367 L653.578007,144.928197 L670.37441,123.540963 Z" id="Fill-35" fill="#FEFEFE" fill-rule="nonzero" transform="translate(653.823338, 125.928197) rotate(30.000000) translate(-653.823338, -125.928197) "></path>
            <path d="M517.282596,310.431586 L517.282596,289.454405 C518.940247,288.291657 524.256163,285.029022 530.921943,285.671136 C536.725921,286.248172 542.169349,289.632288 547.107127,295.728035 C553.799289,303.993088 564.268433,310.904494 576.522741,310.904494 C582.854353,310.904494 589.66963,309.04323 596.687166,304.5788 L596.687166,310.431586 C596.687166,322.271653 586.921534,331.903368 574.913456,331.903368 L539.043115,331.903368 C527.048228,331.903368 517.282596,322.271653 517.282596,310.431586 L517.282596,310.431586 Z M520.487974,217.498552 C525.913814,223.568268 539.060703,227.221378 556.982683,227.221378 C574.900265,227.221378 588.047154,223.568268 593.472994,217.498552 C595.447226,223.025942 596.687166,228.939467 596.687166,233.564426 L596.687166,264.589829 C595.244966,266.733102 587.035855,278.239097 576.848115,278.239097 L576.81294,278.239097 C570.327434,278.221742 564.127731,273.505673 558.394104,264.229724 L558.134684,263.817556 C554.485213,257.912707 547.691921,246.91433 536.879814,245.651794 C530.671317,244.944601 524.093476,247.56946 517.282596,253.482986 L517.282596,233.564426 C517.282596,228.926452 518.513742,223.012926 520.487974,217.498552 L520.487974,217.498552 Z M540.032429,197.467188 L548.676839,209.927677 L548.558121,209.927677 C548.558121,215.832526 558.213829,216.470301 562.360156,216.470301 C569.23699,216.470301 574.4166,213.589464 574.4166,209.767148 C574.4166,207.185675 572.011467,204.981661 568.15534,203.857961 C568.071798,201.979343 567.504591,200.096386 566.352589,198.439037 L566.335001,198.413005 C581.579237,200.408766 592.923375,205.519649 592.923375,210.743336 C592.923375,217.112416 581.67597,223.96742 556.982683,223.96742 C532.284999,223.96742 521.037593,217.112416 521.037593,210.743336 C521.037593,206.521868 530.284385,200.144111 540.032429,197.467188 L540.032429,197.467188 Z M571.118886,209.767148 C571.118886,211.099102 568.019034,212.990736 563.125226,213.177296 C563.274722,213.086185 563.4506,213.051476 563.5957,212.951688 C565.728222,211.51127 567.108865,209.428737 567.755217,207.146628 C569.887739,207.871176 571.118886,208.929796 571.118886,209.767148 L571.118886,209.767148 Z M540.933805,189.271553 C541.294355,187.379919 542.376005,185.739924 543.972099,184.663949 C545.225231,183.813581 546.663034,183.41009 548.078853,183.41009 C550.396047,183.41009 552.682463,184.50342 554.089488,186.529551 L561.485162,197.185178 L561.423605,197.883695 C561.621468,197.901049 561.810537,197.918403 562.0084,197.935758 L563.630875,200.274269 C565.899703,203.545581 565.046694,208.027366 561.731392,210.266088 C560.144092,211.346402 558.222623,211.749893 556.27917,211.389789 C554.366496,211.034022 552.70005,209.971063 551.609606,208.391809 L542.077012,194.647091 C540.977774,193.072176 540.573255,191.163187 540.933805,189.271553 L540.933805,189.271553 Z M517.282596,257.925723 C524.15943,251.239925 530.600966,248.176866 536.492882,248.884059 C545.717689,249.960035 551.961362,260.077674 555.316237,265.509614 L555.575658,265.921782 C561.955636,276.238997 569.100684,281.4757 576.81294,281.493055 L576.848115,281.493055 C585.650815,281.493055 592.839833,274.668421 596.687166,270.052139 L596.687166,300.674051 C571.593757,318.280132 553.144143,297.979774 549.683741,293.697565 C544.152374,286.872931 537.935083,283.080986 531.203348,282.430194 C530.499836,282.356438 529.805117,282.326068 529.114796,282.326068 C524.023124,282.326068 519.832828,284.126591 517.282596,285.575687 L517.282596,257.925723 Z M574.913456,335.157326 C588.741873,335.157326 599.984881,324.067838 599.984881,310.431586 L599.984881,302.327061 L599.984881,259.348787 L599.984881,233.564426 C599.984881,227.876508 598.318436,220.379389 595.649486,213.875812 C596.005639,212.877932 596.221089,211.832327 596.221089,210.743336 C596.221089,201.948972 580.308517,196.517032 563.859517,194.842329 L556.811201,184.694319 C555.223901,182.399194 552.809974,180.854649 550.026703,180.342693 C547.243432,179.82206 544.438176,180.407772 542.107791,181.978349 C539.781803,183.544587 538.220885,185.926484 537.697648,188.672825 C537.315113,190.672924 537.539357,192.694717 538.30003,194.534287 C528.195832,197.540944 517.739879,204.543461 517.739879,210.743336 C517.739879,211.836665 517.955329,212.886609 518.31588,213.888828 C515.646929,220.383728 513.984881,227.859153 513.984881,233.564426 L513.984881,310.431586 C513.984881,324.067838 525.227889,335.157326 539.043115,335.157326 L574.913456,335.157326 Z" id="Fill-37" fill="#FEFEFE" fill-rule="nonzero" transform="translate(556.984881, 257.657326) rotate(30.000000) translate(-556.984881, -257.657326) "></path>
            <path d="M603.167894,236.327883 L601.754086,233.421754 C601.420392,233.580348 568.248581,248.6425 535.581702,233.421754 L534.167894,236.327883 C545.59252,241.651501 557.065444,243.421754 567.287016,243.421754 C587.576485,243.421754 602.935186,236.430755 603.167894,236.327883" id="Fill-39" fill="#FEFEFE" fill-rule="nonzero" transform="translate(568.667894, 238.421754) rotate(30.000000) translate(-568.667894, -238.421754) "></path>
            <path d="M581.330652,196.20273 C581.553933,196.154549 581.777213,196.132648 581.987359,196.132648 C583.475895,196.132648 584.819956,197.175114 585.135175,198.68625 C585.494175,200.425153 584.382151,202.133394 582.648445,202.496943 C580.901604,202.864872 579.211678,201.743565 578.843922,200.013423 C578.484922,198.2789 579.596946,196.566279 581.330652,196.20273 M581.987359,205.847725 C582.425164,205.847725 582.880481,205.803924 583.322664,205.711942 C585.025724,205.352773 586.479235,204.354109 587.429272,202.899913 C588.37493,201.445718 588.703283,199.711195 588.35304,198.011714 C587.989662,196.312232 586.991467,194.853657 585.537955,193.907554 C584.084444,192.957071 582.346359,192.632943 580.656433,192.987731 C577.149618,193.727969 574.899302,197.179494 575.626058,200.683579 C576.26963,203.745274 578.979641,205.847725 581.987359,205.847725" id="Fill-41" fill="#FEFEFE" fill-rule="nonzero" transform="translate(581.989691, 199.347725) rotate(30.000000) translate(-581.989691, -199.347725) "></path>
            <path d="M471.097178,412.917543 C476.133751,404.570018 482.54838,399.865642 490.181033,398.942657 L489.745389,395.917543 C481.005846,396.978772 473.746602,402.199533 468.181033,411.449712 L471.097178,412.917543 Z" id="Fill-43" fill="#FEFEFE" fill-rule="nonzero" transform="translate(479.181033, 404.417543) rotate(30.000000) translate(-479.181033, -404.417543) "></path>
            <path d="M508.98098,429.654442 L508.768147,429.96204 L508.768147,430.403941 C507.947218,432.47048 494.03487,436.170321 469.246305,436.170321 C444.457741,436.170321 430.541049,432.47048 429.728808,430.477591 L429.728808,430.061684 L429.524661,429.697765 C428.946971,428.640668 427.439764,425.122787 428.152104,422.926277 C428.330189,422.350072 428.651611,421.916835 429.133743,421.578911 C432.595542,422.488708 449.018455,426.496147 469.246305,426.496147 C489.461126,426.496147 505.393219,422.306748 509.159065,421.223657 C512.221259,424.04836 509.124317,429.416162 508.98098,429.654442 L508.98098,429.654442 Z M503.612369,448.066999 C497.162217,449.353712 468.503561,454.249286 434.867212,447.967355 L433.581525,435.810735 C445.404632,439.363275 467.960619,439.419596 469.246305,439.419596 C470.527649,439.419596 493.074948,439.363275 504.902399,435.810735 L503.612369,448.066999 Z M493.378996,544.98637 L493.387683,545.06002 C492.049874,546.1951 483.918773,548.222647 469.480856,548.222647 C454.526059,548.222647 446.329805,546.047799 445.474129,544.96904 L445.013714,544.145891 L441.747374,513.160806 C451.898219,514.993397 461.401878,515.669246 469.602475,515.669246 C482.676521,515.669246 492.514632,514.079267 496.727863,513.26045 L493.378996,544.98637 Z M490.403673,552.788962 C490.403673,554.530573 488.978993,555.951589 487.228548,555.951589 L451.83741,555.951589 C450.086965,555.951589 448.662285,554.530573 448.662285,552.788962 L448.662285,549.604672 C456.11145,551.398272 467.713037,551.471922 469.480856,551.471922 C471.253019,551.471922 482.958851,551.398272 490.403673,549.578678 L490.403673,552.788962 Z M435.227725,451.355265 C467.42202,457.177966 495.046914,452.975571 503.256199,451.441913 L497.084033,509.876872 C491.919568,510.959963 469.224588,515.041053 441.391204,509.842213 L437.712228,474.949333 L435.227725,451.355265 Z M461.957851,389.094827 C462.075126,393.474849 465.662888,397.01006 470.084608,397.01006 C474.54542,397.01006 475.622618,394.748565 477.755294,390.251569 L478.068029,389.402425 C492.640595,392.72535 503.942477,403.816208 507.491147,418.307974 C502.830532,419.577357 487.728055,423.246872 469.246305,423.246872 C450.794961,423.246872 435.631674,419.858961 430.91025,418.680558 C434.476293,403.547601 446.646883,391.954189 461.957851,389.094827 L461.957851,389.094827 Z M472.916594,367.506645 C473.589842,368.572407 474.423801,369.434548 475.479281,369.989091 C476.582539,370.560963 477.763981,370.773249 478.897644,370.773249 C479.87494,370.773249 480.774052,370.599954 481.612355,370.387669 L475.09705,388.250015 L474.810376,388.865212 C472.682043,393.344878 472.417087,393.760786 470.084608,393.760786 C467.469799,393.760786 465.332779,391.707244 465.198129,389.138151 L472.916594,367.506645 Z M479.753321,362.086854 C481.747004,363.126622 482.78511,365.210491 483.167341,366.137617 L483.050065,366.440883 C482.250855,366.830796 479.119165,368.204156 476.990832,367.108067 C475.761611,366.466877 474.984118,364.950549 474.632291,362.70205 L474.979774,361.727268 C476.80406,361.276702 478.406825,361.385011 479.753321,362.086854 L479.753321,362.086854 Z M510.931228,418.541922 C507.417307,402.490504 495.116411,390.134595 479.193005,386.352439 L486.611766,366.193938 L486.455398,365.678386 C486.407619,365.500759 485.117589,361.233378 481.290933,359.22316 C478.949767,357.9971 476.235056,357.871462 473.216298,358.859241 L472.451836,359.110519 L471.361608,362.173502 L471.253019,362.186499 C471.257363,362.251484 471.279081,362.307805 471.287768,362.377123 L463.026361,385.529289 C445.313418,388.102715 431.105709,401.489727 427.448451,418.927502 C426.336505,419.677002 425.459111,420.647452 425.046475,421.934165 C423.917155,425.439049 425.87609,429.719427 426.51459,430.958484 C426.757828,432.357839 428.139073,433.510248 430.163161,434.48503 L442.081826,547.386501 L443.328421,547.386501 C443.906112,547.884723 444.71401,548.322292 445.691305,548.70354 L445.404632,548.70354 L445.404632,552.788962 C445.404632,556.324173 448.28874,559.200863 451.83741,559.200863 L487.228548,559.200863 C490.777217,559.200863 493.661326,556.324173 493.661326,552.788962 L493.661326,548.70354 L493.24869,548.70354 C494.282452,548.30063 495.138128,547.832734 495.720162,547.299853 L496.467251,547.221871 L496.562808,545.930826 L496.714832,545.172661 L496.654023,545.008031 L500.159257,511.791778 L507.252253,447.252514 L506.965579,447.313168 L508.320763,434.48503 C510.33182,433.518913 511.708721,432.3795 511.96499,430.993143 C513.645939,427.951822 515.248704,422.007815 510.931228,418.541922 L510.931228,418.541922 Z" id="Fill-45" fill="#FEFEFE" fill-rule="nonzero" transform="translate(469.202503, 458.700863) rotate(30.000000) translate(-469.202503, -458.700863) "></path>
            <path d="M604.362446,495.805462 L604.362446,488.711832 C607.543406,489.228359 613.689228,489.654493 617.885848,486.279853 C620.941471,483.830657 622.341785,479.935186 622.056536,474.800052 L622.056536,448.056894 L618.815069,448.056894 L618.823713,474.890444 C619.03981,479.014048 618.04576,481.996988 615.85885,483.757482 C611.385625,487.351646 603.247381,485.190843 603.173908,485.169321 L601.120979,484.609751 L601.120979,507.930922 L590.25558,507.930922 L590.25558,496.756732 L587.014113,496.756732 L587.014113,507.930922 L581.611667,507.930922 L581.611667,496.756732 L578.3702,496.756732 L578.3702,507.930922 L572.967754,507.930922 L572.967754,496.756732 L569.726287,496.756732 L569.726287,507.930922 L562.638278,507.930922 L562.638278,485.113364 L561.017544,485.113364 C554.819859,485.113364 550.398497,483.641264 547.485499,480.610975 C542.325083,475.247709 542.731346,465.786665 543.094391,457.444763 C543.18083,455.426005 543.262947,453.489031 543.262947,451.711319 C543.262947,426.169084 564.129353,405.387502 589.775843,405.387502 L601.924863,405.387502 C627.567031,405.387502 648.424793,426.169084 648.424793,451.711319 C648.424793,479.857707 633.604804,494.682017 604.362446,495.805462 M601.924863,402.159212 L589.775843,402.159212 C562.340063,402.159212 540.02148,424.387068 540.02148,451.711319 C540.02148,453.445987 539.939363,455.335613 539.852923,457.307022 C539.489879,465.851231 539.02743,476.487372 545.138676,482.840648 C548.3715,486.206679 553.164549,488.036043 559.396811,488.30722 L559.396811,511.159212 L604.362446,511.159212 L604.362446,499.033753 C635.757138,497.888786 651.666259,481.975466 651.666259,451.711319 C651.666259,424.387068 629.347677,402.159212 601.924863,402.159212" id="Fill-47" fill="#FEFEFE" fill-rule="nonzero" transform="translate(595.666259, 456.659212) rotate(30.000000) translate(-595.666259, -456.659212) "></path>
            <path d="M595.599272,464.035129 C592.147476,464.035129 589.339381,461.227034 589.339381,457.775238 C589.339381,454.323442 592.147476,451.515347 595.599272,451.515347 C599.051068,451.515347 601.859163,454.323442 601.859163,457.775238 C601.859163,461.227034 599.051068,464.035129 595.599272,464.035129 M595.599272,448.275238 C590.358935,448.275238 586.099272,452.534901 586.099272,457.775238 C586.099272,463.015575 590.358935,467.275238 595.599272,467.275238 C600.839609,467.275238 605.099272,463.015575 605.099272,457.775238 C605.099272,452.534901 600.839609,448.275238 595.599272,448.275238" id="Fill-49" fill="#FEFEFE" fill-rule="nonzero" transform="translate(595.599272, 457.775238) rotate(30.000000) translate(-595.599272, -457.775238) "></path>
            <path d="M567.886459,448.035129 C564.434663,448.035129 561.626568,445.227034 561.626568,441.775238 C561.626568,438.323442 564.434663,435.515347 567.886459,435.515347 C571.338255,435.515347 574.14635,438.323442 574.14635,441.775238 C574.14635,445.227034 571.338255,448.035129 567.886459,448.035129 M577.386459,441.775238 C577.386459,436.534901 573.126796,432.275238 567.886459,432.275238 C562.646122,432.275238 558.386459,436.534901 558.386459,441.775238 C558.386459,447.015575 562.646122,451.275238 567.886459,451.275238 C573.126796,451.275238 577.386459,447.015575 577.386459,441.775238" id="Fill-51" fill="#FEFEFE" fill-rule="nonzero" transform="translate(567.886459, 441.775238) rotate(30.000000) translate(-567.886459, -441.775238) "></path>
            <path d="M563.748877,472.254027 L567.276715,465.200748 L570.808651,472.254027 L563.748877,472.254027 Z M558.778764,475.327797 L575.778764,475.327797 L567.276715,458.327797 L558.778764,475.327797 Z" id="Fill-53" fill="#FEFEFE" fill-rule="nonzero" transform="translate(567.278764, 466.827797) rotate(30.000000) translate(-567.278764, -466.827797) "></path>
            <path d="M476.860632,95.6793011 C481.354813,90.1421781 507.317843,50.6489551 510.491723,45.8148221 C511.837827,45.3157861 516.194387,43.9271661 518.86079,46.0404721 C521.462684,48.1103841 522.086279,53.2352601 520.697168,60.6470201 L512.05716,86.8268481 C511.158324,89.0920351 511.222834,90.9753511 512.25499,92.4290621 C512.745265,93.1060141 513.459173,93.6007101 514.280597,94.0129571 L511.575487,94.8895231 C521.002514,124.454113 506.866275,137.246775 506.259883,137.776187 L508.3586,140.249666 C509.029502,139.668182 524.627963,125.734247 514.753669,94.2559651 C518.301706,95.7357141 524.400029,95.3972381 532.197109,94.9372571 C543.942187,94.2342681 558.044022,93.4227931 565.780892,99.2463191 C565.049782,99.0857601 564.297168,98.9946321 563.51875,98.9946321 L532.141201,98.9946321 C526.227805,98.9946321 521.411076,103.854802 521.411076,109.825868 C521.411076,114.317186 524.137689,118.179286 528.008275,119.815254 C524.137689,121.451222 521.411076,125.313322 521.411076,129.80464 C521.411076,134.118041 523.939859,137.823921 527.569609,139.564035 C523.939859,141.30415 521.411076,145.01003 521.411076,149.323431 C521.411076,153.077044 523.316265,156.383696 526.197701,158.332104 C523.346369,160.0592 521.411076,163.179256 521.411076,166.77231 C521.411076,169.328239 522.404527,171.63682 523.982866,173.389953 L505.545975,173.389953 C485.109281,173.389953 468.478664,156.613686 468.478664,135.988339 C468.478664,117.172536 472.108413,106.974858 476.860632,95.6793011 M563.51875,117.402527 L532.141201,117.402527 C528.008275,117.402527 524.636565,114.004747 524.636565,109.825868 C524.636565,105.64699 528.008275,102.24921 532.141201,102.24921 L563.51875,102.24921 C567.660277,102.24921 571.027687,105.64699 571.027687,109.825868 C571.027687,114.004747 567.660277,117.402527 563.51875,117.402527 M571.027687,129.80464 C571.027687,133.983518 567.660277,137.381298 563.51875,137.381298 L532.141201,137.381298 C528.008275,137.381298 524.636565,133.983518 524.636565,129.80464 C524.636565,125.625761 528.008275,122.227981 532.141201,122.227981 L563.51875,122.227981 C567.660277,122.227981 571.027687,125.625761 571.027687,129.80464 M571.027687,149.323431 C571.027687,153.502309 567.660277,156.900089 563.51875,156.900089 L559.304112,156.900089 L532.141201,156.900089 C528.008275,156.900089 524.636565,153.502309 524.636565,149.323431 C524.636565,145.144552 528.008275,141.746772 532.141201,141.746772 L563.51875,141.746772 C567.660277,141.746772 571.027687,145.144552 571.027687,149.323431 M559.304112,173.389953 L531.569214,173.389953 L531.190757,173.389953 C527.57821,173.389953 524.636565,170.421777 524.636565,166.77231 C524.636565,163.122843 527.57821,160.154667 531.190757,160.154667 L532.141201,160.154667 L559.304112,160.154667 C562.916659,160.154667 565.862605,163.122843 565.862605,166.77231 C565.862605,170.421777 562.916659,173.389953 559.304112,173.389953 M505.545975,176.644531 L531.190757,176.644531 L531.569214,176.644531 L559.304112,176.644531 C564.697129,176.644531 569.088093,172.218304 569.088093,166.77231 C569.088093,164.038464 567.978525,161.564985 566.189454,159.777136 C570.816955,158.566433 574.253175,154.357179 574.253175,149.323431 C574.253175,145.01003 571.724392,141.30415 568.098943,139.564035 C571.724392,137.823921 574.253175,134.118041 574.253175,129.80464 C574.253175,125.313322 571.530863,121.451222 567.655976,119.815254 C571.530863,118.179286 574.253175,114.317186 574.253175,109.825868 C574.253175,107.170132 573.268326,104.766084 571.689987,102.878428 L572.63613,102.383732 C566.047533,89.6778591 547.176277,90.8017731 532.012181,91.6870181 C524.309715,92.1469991 516.366413,92.6113191 514.878387,90.5283881 C514.534335,90.0380321 514.581643,89.2005201 515.080518,87.9464231 L523.81514,61.4671741 C525.513897,52.4454831 524.520447,46.4006461 520.856292,43.4845441 C516.129877,39.7222511 509.063907,42.8726831 508.762862,43.0072051 L508.341398,43.1981411 L508.083359,43.5930291 C507.786614,44.0486701 478.262645,89.0139251 474.241536,93.7656091 L473.987798,94.1821951 C469.042049,105.911695 465.253175,116.434832 465.253175,135.988339 C465.253175,158.405874 483.328812,176.644531 505.545975,176.644531" id="Fill-55" fill="#FEFEFE" fill-rule="nonzero" transform="translate(519.753175, 109.144531) rotate(30.000000) translate(-519.753175, -109.144531) "></path>
            <path d="M620.509191,209.023206 L629.692707,191.711336 C630.440407,190.427681 631.927011,189.432194 632.621932,189.082901 C633.668712,188.545862 634.812254,188.270793 635.964592,188.270793 C636.721088,188.270793 637.473186,188.388679 638.21209,188.624453 C640.076942,189.218252 641.598732,190.501906 642.491574,192.23091 C643.393212,193.96428 643.555947,195.93779 642.957787,197.789046 C642.355228,199.644669 641.066545,201.150998 639.320446,202.037331 C638.410011,202.500145 628.522777,206.119702 620.509191,209.023206 M646.098127,198.7889 C646.968978,196.103704 646.727075,193.243862 645.429595,190.73768 C644.132116,188.222765 641.924201,186.371508 639.219286,185.507006 C636.514371,184.642504 633.642323,184.882644 631.108939,186.170664 C630.638328,186.406438 628.188511,187.73812 626.807465,190.135148 L613.612757,214.996128 L617.623948,213.550925 C619.831862,212.751916 639.263268,205.748577 640.824642,204.953934 C643.358026,203.661547 645.222878,201.474095 646.098127,198.7889" id="Fill-57" fill="#FEFEFE" fill-rule="nonzero" transform="translate(630.112758, 199.996128) rotate(30.000000) translate(-630.112758, -199.996128) "></path>
            <path d="M593.4045,168.82447 L586.693613,165.423951 L579.996042,168.82447 L581.278745,161.629914 L575.850561,156.535552 L583.347047,155.487593 L586.693613,148.943199 L590.049057,155.487593 L597.549981,156.535552 L592.121797,161.629914 L593.4045,168.82447 Z M592.259388,152.55331 L586.693613,141.68876 L581.136715,152.55331 L568.700271,154.298481 L577.696942,162.750588 L575.57094,174.68876 L586.693613,169.051171 L597.825163,174.68876 L595.7036,162.750588 L604.700271,154.298481 L592.259388,152.55331 Z" id="Fill-59" fill="#FEFEFE" fill-rule="nonzero" transform="translate(586.700271, 158.188760) rotate(30.000000) translate(-586.700271, -158.188760) "></path>
            <path d="M730.396559,155.541676 L723.692896,152.144995 L716.989234,155.541676 L718.267813,148.346188 L712.847169,143.255444 L720.336625,142.203071 L723.692896,135.662107 L727.040288,142.203071 L734.543063,143.255444 L729.11354,148.346188 L730.396559,155.541676 Z M729.251165,139.268407 L723.692896,128.406727 L718.125749,139.268407 L705.695116,141.013805 L714.685127,149.467007 L712.56748,161.406727 L723.692896,155.772685 L734.818312,161.406727 L732.696226,149.467007 L741.695116,141.013805 L729.251165,139.268407 Z" id="Fill-61" fill="#FEFEFE" fill-rule="nonzero" transform="translate(723.695116, 144.906727) rotate(30.000000) translate(-723.695116, -144.906727) "></path>
            <g id="Group-65" transform="translate(723.557276, 315.145475) rotate(30.000000) translate(-723.557276, -315.145475) translate(705.557276, 298.145475)">
                <g id="Fill-63-Clipped">
                    <g>
                        <mask id="mask-4" fill="white">
                            <use xlink:href="#path-3"></use>
                        </mask>
                        <g id="path-3"></g>
                        <path d="M24.6852918,27.9620625 L18.0712632,24.4708216 L11.4528545,27.9620625 L12.7187183,20.5662599 L7.3617931,15.3293985 L14.7598688,14.2521264 L18.0712632,7.52467222 L21.3738974,14.2521264 L28.7763532,15.3293985 L23.4194281,20.5662599 L24.6852918,27.9620625 Z M23.5552128,11.2357646 L18.0712632,0.0673112129 L12.5785534,11.2357646 L0.305369218,13.0297524 L9.18393608,21.7182815 L7.08584357,33.9903892 L18.0712632,28.1995021 L29.0479226,33.9903892 L26.9542103,21.7182815 L35.8327771,13.0297524 L23.5552128,11.2357646 Z" id="Fill-63" fill="#FEFEFE" fill-rule="nonzero" mask="url(#mask-4)"></path>
                    </g>
                </g>
            </g>
            <path d="M446.206975,356.465019 L448.411557,358.92845 C448.872351,358.552453 459.592586,349.636562 459.100169,337.94607 C458.887843,331.16083 455.215044,325.097333 448.18116,319.92845 L446.116623,322.504248 C452.305718,327.046469 455.531275,332.275857 455.711979,338.058437 C456.14115,348.214687 446.613558,356.136562 446.206975,356.465019" id="Fill-70" fill="#FEFEFE" fill-rule="nonzero" transform="translate(452.616623, 339.428450) rotate(30.000000) translate(-452.616623, -339.428450) "></path>
            <path d="M456.628006,316.111463 L454.45989,318.498786 C473.818962,338.372479 462.982543,362.095121 454.54728,371.861444 L456.848563,374.111463 C465.991272,363.516885 477.718242,337.765682 456.628006,316.111463" id="Fill-71" fill="#FEFEFE" fill-rule="nonzero" transform="translate(461.459890, 345.111463) rotate(30.000000) translate(-461.459890, -345.111463) "></path>
            <path d="M464.577801,314.361463 L462.053157,316.603769 C492.303061,347.908117 462.447203,383.921307 462.144796,384.281834 L464.811479,386.361463 C465.132214,385.978952 496.848336,347.767423 464.577801,314.361463" id="Fill-72" fill="#FEFEFE" fill-rule="nonzero" transform="translate(470.553157, 350.361463) rotate(30.000000) translate(-470.553157, -350.361463) "></path>
            <path d="M402.584662,311.022356 L428.610602,311.022356 L441.026807,299.70326 L441.026807,345.885692 L428.610602,334.566596 L402.584662,334.566596 L402.584662,311.022356 Z M444.305734,353.294476 L444.305734,292.294476 L427.329634,307.770988 L399.305734,307.770988 L399.305734,337.817964 L427.329634,337.817964 L444.305734,353.294476 Z" id="Fill-73" fill="#FEFEFE" fill-rule="nonzero" transform="translate(421.805734, 322.794476) rotate(30.000000) translate(-421.805734, -322.794476) "></path>
            <path d="M769.595803,219.493489 C768.376261,222.595068 764.713296,229.433333 754.831102,235.153637 C752.326918,236.6022 749.575354,237.846312 746.65887,238.846822 L744.276207,239.664629 L745.990509,241.504697 C748.472993,244.166922 750.599596,247.033599 752.326918,250.030777 C757.990626,259.86187 757.947226,266.808886 757.560966,269.714714 L742.362264,265.07322 L740.192261,280.894319 C737.097836,279.671958 730.271006,276.000523 724.568238,266.095479 C723.474557,264.198861 722.476355,262.093442 721.599674,259.83142 L720.085012,255.942483 L718.56601,259.83142 C717.684988,262.093442 716.686787,264.198861 715.593105,266.095479 C709.894677,276.000523 703.063507,279.671958 699.969083,280.894319 L697.80776,265.07322 L682.600378,269.714714 C682.209777,266.800186 682.175057,259.85317 687.838765,250.030777 C689.340407,247.412053 691.20661,244.841178 693.376613,242.396455 L695.112616,240.425887 L692.586732,239.73423 C688.676386,238.66412 684.848501,237.080705 681.515376,235.153637 C671.633182,229.433333 667.970217,222.595068 666.750675,219.493489 L682.530938,217.322818 L677.904491,202.084624 C680.803615,201.69312 687.738945,201.64962 697.543019,207.326423 C698.25044,207.735327 698.936161,208.165981 699.613202,208.614036 L702.707627,210.636805 L702.113046,206.98712 C701.692065,204.398846 701.479405,201.888872 701.479405,199.52245 C701.479405,188.081841 705.554671,181.487179 707.624854,178.877154 L717.389868,191.492274 L728.248564,179.855914 C730.036646,182.183186 733.534691,188.177542 733.534691,199.52245 C733.534691,202.280376 733.265611,205.129653 732.74047,207.99633 L732.011349,211.946167 L735.283714,209.623245 C736.425135,208.809788 737.596937,208.02678 738.799119,207.326423 C748.616213,201.64527 755.534183,201.68442 758.450667,202.084624 L753.8112,217.322818 L769.595803,219.493489 Z M762.525933,199.853053 L761.076371,199.326698 C760.70313,199.196197 751.736677,196.077217 737.171616,204.503247 C736.945936,204.638098 736.715916,204.772949 736.485895,204.912151 C736.689876,203.093833 736.789696,201.288566 736.789696,199.52245 C736.789696,182.67039 729.620006,176.445481 729.316205,176.193179 L728.127043,175.19702 L717.615548,186.467976 L707.954694,173.974658 L706.648352,175.114369 C706.309832,175.414522 698.2244,182.69214 698.2244,199.52245 C698.2244,201.001464 698.29818,202.528328 698.450081,204.089993 C684.32336,196.177268 675.643348,199.196197 675.278787,199.326698 L673.829225,199.853053 L678.303772,214.612742 L662.671069,216.761663 L663.009589,218.458179 C663.09639,218.906233 665.348853,229.559484 679.887874,237.976813 C682.769638,239.642879 685.981243,241.069693 689.305687,242.157203 C687.678185,244.184322 686.237303,246.272342 685.017761,248.399512 C676.606829,262.9939 679.718614,271.972385 679.853154,272.346489 L680.378295,273.799402 L695.103936,269.31016 L697.247899,284.974658 L698.936161,284.644055 C699.383182,284.552704 710.020537,282.303733 718.414109,267.726745 C719.00001,266.713185 719.551191,265.647425 720.085012,264.538165 C720.610153,265.647425 721.170013,266.713185 721.747234,267.726745 C730.145146,282.303733 740.773822,284.552704 741.225182,284.644055 L742.922125,284.974658 L745.066088,269.31016 L759.778709,273.799402 L760.31253,272.346489 C760.45141,271.972385 763.550174,262.9939 755.152262,248.399512 C753.68534,245.863438 751.958018,243.414365 749.987655,241.095793 C752.270498,240.195334 754.440501,239.151325 756.458604,237.976813 C771.001965,229.559484 773.250088,218.906233 773.341229,218.458179 L773.671069,216.761663 L758.042706,214.612742 L762.525933,199.853053 Z" id="Fill-74" fill="#FEFEFE" fill-rule="nonzero" transform="translate(718.171069, 229.474658) rotate(30.000000) translate(-718.171069, -229.474658) "></path>
            <path d="M715.488056,239.859484 C711.769048,239.859484 708.750344,236.84078 708.750344,233.121772 C708.750344,229.411463 711.769048,226.38406 715.488056,226.38406 C719.202715,226.38406 722.225768,229.411463 722.225768,233.121772 C722.225768,236.84078 719.202715,239.859484 715.488056,239.859484 M715.488056,223.121772 C709.972615,223.121772 705.488056,227.61068 705.488056,233.121772 C705.488056,238.637213 709.972615,243.121772 715.488056,243.121772 C721.003497,243.121772 725.488056,238.637213 725.488056,233.121772 C725.488056,227.61068 721.003497,223.121772 715.488056,223.121772" id="Fill-75" fill="#FEFEFE" fill-rule="nonzero" transform="translate(715.488056, 233.121772) rotate(30.000000) translate(-715.488056, -233.121772) "></path>
            <path d="M458.38649,283.221462 L475.586772,283.221462 C474.558564,287.984071 469.93374,297.344312 466.988747,302.888389 C464.043754,297.344312 459.414699,287.984071 458.38649,283.221462 L458.38649,283.221462 Z M466.988747,184.791316 C473.559974,184.791316 475.57831,185.733418 475.77295,188.980849 C474.922456,190.022805 472.311737,192.818721 468.469706,193.213796 C465.190439,193.526383 461.750383,192.015547 458.217238,188.78114 C458.479579,185.694345 460.552922,184.791316 466.988747,184.791316 L466.988747,184.791316 Z M458.162231,192.944624 C460.57831,194.755024 462.994389,195.836053 465.402005,196.252836 L465.402005,279.492126 L468.575489,279.492126 L468.575489,196.461227 C468.660115,196.452544 468.744741,196.456886 468.833599,196.448203 C471.795517,196.126933 474.143895,194.77239 475.815263,193.426529 L475.815263,279.965348 L458.162231,279.965348 L458.162231,192.944624 Z M468.368155,307.047531 C469.45137,305.089521 478.988747,287.723582 478.988747,281.593405 L478.988747,189.506168 C478.988747,181.535202 471.478169,181.535202 466.988747,181.535202 C462.503557,181.535202 454.988747,181.535202 454.988747,189.506168 L454.988747,281.593405 C454.988747,287.723582 464.517661,305.089521 465.609339,307.047531 L466.988747,309.535202 L468.368155,307.047531 Z" id="Fill-76" fill="#FEFEFE" fill-rule="nonzero" transform="translate(466.988747, 245.535202) rotate(30.000000) translate(-466.988747, -245.535202) "></path>
            <path d="M626.071884,47.0260357 C626.053692,44.7714442 626.035501,42.6477372 626.872305,41.8666521 C627.236133,41.5204415 627.91831,41.3473361 628.896097,41.3473361 C632.957325,41.3473361 636.249966,44.4125673 636.249966,48.178664 C636.249966,51.9447606 632.957325,55.0142139 628.896097,55.0142139 C627.91831,55.0142139 627.236133,54.8368865 626.872305,54.4948979 C626.035501,53.7138128 626.053692,51.5858837 626.071884,49.3355143 L626.080979,48.178664 L626.071884,47.0260357 Z M624.448302,56.7199348 C625.494307,57.6994577 626.949618,58.180775 628.896097,58.180775 C634.831038,58.180775 639.660852,53.6927024 639.660852,48.178664 C639.660852,42.6688476 634.831038,38.180775 628.896097,38.180775 C626.949618,38.180775 625.494307,38.6578702 624.448302,39.6373931 C622.61552,41.3515582 622.633711,43.9903591 622.670094,47.0513682 L622.670094,48.178664 L622.670094,49.3059597 C622.633711,52.3669688 622.61552,55.0057697 624.448302,56.7199348 L624.448302,56.7199348 Z" id="Fill-78" fill="#FEFEFE" fill-rule="nonzero" transform="translate(631.160852, 48.180775) rotate(30.000000) translate(-631.160852, -48.180775) "></path>
            <path d="M362.837452,53.7388894 C366.349775,53.7388894 369.205629,56.5947433 369.205629,60.1028859 C369.205629,63.6110285 366.349775,66.4668824 362.837452,66.4668824 C359.325128,66.4668824 356.477636,63.6110285 356.477636,60.1028859 C356.477636,56.5947433 359.325128,53.7388894 362.837452,53.7388894 M362.837452,69.6028859 C368.080849,69.6028859 372.341633,65.3421024 372.341633,60.1028859 C372.341633,54.8678507 368.080849,50.6028859 362.837452,50.6028859 C357.602416,50.6028859 353.341633,54.8678507 353.341633,60.1028859 C353.341633,65.3421024 357.602416,69.6028859 362.837452,69.6028859" id="Fill-1" fill="#FEFEFE" fill-rule="nonzero" transform="translate(362.841633, 60.102886) rotate(30.000000) translate(-362.841633, -60.102886) "></path>
            <path d="M387.086163,67.7388894 C390.598486,67.7388894 393.45434,70.5947433 393.45434,74.1028859 C393.45434,77.6110285 390.598486,80.4668824 387.086163,80.4668824 C383.582201,80.4668824 380.726347,77.6110285 380.726347,74.1028859 C380.726347,70.5947433 383.582201,67.7388894 387.086163,67.7388894 M387.086163,83.6028859 C392.32956,83.6028859 396.590344,79.3421024 396.590344,74.1028859 C396.590344,68.8678507 392.32956,64.6028859 387.086163,64.6028859 C381.851127,64.6028859 377.590344,68.8678507 377.590344,74.1028859 C377.590344,79.3421024 381.851127,83.6028859 387.086163,83.6028859" id="Fill-3" fill="#FEFEFE" fill-rule="nonzero" transform="translate(387.090344, 74.102886) rotate(30.000000) translate(-387.090344, -74.102886) "></path>
            <path d="M411.343236,81.7388894 C414.85556,81.7388894 417.703051,84.5947433 417.703051,88.1028859 C417.703051,91.6110285 414.85556,94.4668824 411.343236,94.4668824 C407.830912,94.4668824 404.975058,91.6110285 404.975058,88.1028859 C404.975058,84.5947433 407.830912,81.7388894 411.343236,81.7388894 M411.343236,97.6028859 C416.578271,97.6028859 420.839055,93.3421024 420.839055,88.1028859 C420.839055,82.8678507 416.578271,78.6028859 411.343236,78.6028859 C406.099838,78.6028859 401.839055,82.8678507 401.839055,88.1028859 C401.839055,93.3421024 406.099838,97.6028859 411.343236,97.6028859" id="Fill-5" fill="#FEFEFE" fill-rule="nonzero" transform="translate(411.339055, 88.102886) rotate(30.000000) translate(-411.339055, -88.102886) "></path>
            <g id="Group-9" transform="translate(383.108293, 77.000000) rotate(30.000000) translate(-383.108293, -77.000000) translate(321.608293, 24.000000)">
                <g id="Fill-7-Clipped">
                    <g>
                        <mask id="mask-6" fill="white">
                            <use xlink:href="#path-5"></use>
                        </mask>
                        <g id="path-1"></g>
                        <path d="M61.4557191,3.92603566 C93.3202399,3.92603566 119.245605,22.2977513 119.245605,44.8813706 C119.245605,54.6382236 114.245806,64.1128357 105.185564,71.5639971 L104.31114,72.2847971 L113.003432,97.6343778 L87.3767557,81.4337465 L86.6408546,81.6855923 C78.6628201,84.4385272 70.1912989,85.8367055 61.4557191,85.8367055 C29.5911983,85.8367055 3.66583288,67.4649899 3.66583288,44.8813706 C3.66583288,22.2977513 29.5911983,3.92603566 61.4557191,3.92603566 M61.4557191,89.093332 C70.2735467,89.093332 78.8576175,87.7212067 86.9655169,85.0160357 L119.076781,105.324359 L108.107525,73.3529706 C117.392866,65.3807489 122.492228,55.3112598 122.492228,44.8813706 C122.492228,20.5000935 95.1123757,0.669409157 61.4557191,0.669409157 C27.8077202,0.669409157 0.41921006,20.5000935 0.41921006,44.8813706 C0.41921006,69.2583055 27.8077202,89.093332 61.4557191,89.093332" id="Fill-7" fill="#FEFEFE" fill-rule="nonzero" mask="url(#mask-6)"></path>
                    </g>
                </g>
            </g>
            <path d="M62.9844219,438.152607 C61.4822609,438.584241 59.5700269,438.528129 57.7052759,438.010168 C55.8448409,437.492208 54.1743349,436.542614 53.1210959,435.398785 C52.2621009,434.470772 51.8822449,433.503913 52.1023889,432.739922 C52.4218139,431.578827 54.1657019,430.698295 56.5527559,430.698295 C57.4980809,430.698295 58.5340539,430.836417 59.6304589,431.142877 C61.4822609,431.660838 63.1527669,432.610432 64.2146389,433.749944 C65.0736339,434.677957 65.4448569,435.649132 65.2333459,436.413124 C65.0261519,437.168483 64.1973729,437.8073 62.9844219,438.152607 L62.9844219,438.152607 Z M29.9455172,387.310483 L56.7124689,401.027799 L53.8635429,409.971248 L27.0965916,396.249615 L29.9455172,387.310483 Z M27.3642179,420.00673 C29.2203361,420.52469 30.886526,421.474284 31.9527148,422.613797 C32.8117091,423.541809 33.1829327,424.512985 32.9714216,425.276976 C32.8289753,425.786304 32.4404854,426.217938 31.805952,426.571877 C30.2908415,427.443777 27.8433554,427.547369 25.4433514,426.874021 C23.5786001,426.35606 21.9080937,425.406466 20.8548545,424.266954 C19.9958603,423.334625 19.6160035,422.367766 19.8361478,421.603774 C20.2807528,419.980832 23.4965855,418.927646 27.3642179,420.00673 L27.3642179,420.00673 Z M60.4980859,428.022166 C57.7916069,427.271124 55.1800919,427.309971 53.1167789,427.991952 L56.3887269,412.707805 L60.6232669,399.400541 L28.0203341,382.679054 L23.1814771,397.876874 L23.2203261,397.894139 L16.7195958,420.723242 C16.7152792,420.727558 16.7152792,420.731874 16.7152792,420.736191 C16.1843431,422.631062 16.8102434,424.668373 18.4764333,426.468285 C19.9526947,428.052381 22.1109717,429.304118 24.575724,429.990415 C25.8879565,430.36162 27.2217716,430.542907 28.4951551,430.542907 C30.3426402,430.542907 32.0519956,430.154436 33.3987604,429.394761 C34.7843739,428.613504 35.7124329,427.48694 36.0922899,426.14456 C36.6145929,424.275586 35.9627939,422.190796 34.3181859,420.416782 C32.8548746,418.824054 30.6879645,417.572316 28.2318453,416.886019 C25.6721288,416.173823 23.2160095,416.195405 21.2044954,416.77811 L26.1555828,399.396224 L52.9872829,413.16102 L48.9556209,431.967297 L48.9685709,431.967297 C48.4937499,433.810373 49.1282829,435.856316 50.7426739,437.600116 C52.2189359,439.188528 54.3772129,440.440266 56.8376489,441.126563 C58.1541979,441.493452 59.4836959,441.679054 60.7570799,441.679054 C61.8534839,441.679054 62.9067239,441.540931 63.8693149,441.269002 C66.1959379,440.59997 67.8319119,439.145365 68.3542149,437.280707 C68.8765179,435.411734 68.2290349,433.326943 66.5844279,431.552929 C65.1167989,429.964517 62.9498889,428.708464 60.4980859,428.022166 L60.4980859,428.022166 Z" id="Fill-10" fill="#FEFEFE" fill-rule="nonzero" transform="translate(42.531089, 412.179054) rotate(30.000000) translate(-42.531089, -412.179054) "></path>
            <path d="M142.705022,531.659044 C138.857206,532.726404 135.658575,531.684763 135.207156,530.073006 C134.760035,528.456962 136.944047,525.910728 140.800461,524.83908 C141.892467,524.534733 142.924283,524.401848 143.857217,524.401848 C146.230395,524.401848 147.971586,525.272026 148.298328,526.425118 C148.741149,528.041162 146.557137,530.587396 142.705022,531.659044 M156.316402,501.254267 C152.588965,501.28856 149.867548,501.26284 142.477163,493.306931 L141.294873,494.400011 L139.734251,494.81581 L146.999958,521.645572 C144.983617,521.045449 142.507257,521.028303 139.932015,521.744163 C134.527876,523.244469 131.084189,527.282436 132.098808,530.93461 C132.872671,533.678027 135.91223,535.306931 139.674061,535.306931 C140.907942,535.306931 142.236406,535.131181 143.569169,534.758248 C148.977607,533.253655 152.412696,529.224261 151.402376,525.576374 L144.386023,499.64251 C149.854651,504.400624 153.00599,504.490642 156.625947,504.469209 C163.066201,504.469209 165.779019,511.572087 165.890799,511.876435 L168.92176,510.770495 C168.775586,510.384702 165.336198,501.254267 156.316402,501.254267" id="Fill-12" fill="#FEFEFE" fill-rule="nonzero" transform="translate(150.421760, 514.306931) rotate(30.000000) translate(-150.421760, -514.306931) "></path>
            <path d="M15.1311143,375.00844 C11.6187904,375.00844 8.76293654,372.152587 8.76293654,368.644444 C8.76293654,365.136301 11.6187904,362.280448 15.1311143,362.280448 C18.6350756,362.280448 21.4909295,365.136301 21.4909295,368.644444 C21.4909295,372.152587 18.6350756,375.00844 15.1311143,375.00844 M15.1311143,359.144444 C9.88771654,359.144444 5.62693304,363.405227 5.62693304,368.644444 C5.62693304,373.879479 9.88771654,378.144444 15.1311143,378.144444 C20.3661495,378.144444 24.626933,373.879479 24.626933,368.644444 C24.626933,363.405227 20.3661495,359.144444 15.1311143,359.144444" id="Fill-14" fill="#FEFEFE" fill-rule="nonzero" transform="translate(15.126933, 368.644444) rotate(30.000000) translate(-15.126933, -368.644444) "></path>
            <path d="M13.504181,461.827061 C9.991857,461.827061 7.1360035,458.971836 7.1360035,455.464465 C7.1360035,451.952914 9.991857,449.097689 13.504181,449.097689 C17.008143,449.097689 19.863996,451.952914 19.863996,455.464465 C19.863996,458.971836 17.008143,461.827061 13.504181,461.827061 M13.504181,445.962375 C8.260783,445.962375 4,450.226401 4,455.464465 C4,460.698349 8.260783,464.962375 13.504181,464.962375 C18.739217,464.962375 23,460.698349 23,455.464465 C23,450.226401 18.739217,445.962375 13.504181,445.962375" id="Fill-16" fill="#FEFEFE" fill-rule="nonzero" transform="translate(13.500000, 455.462375) rotate(30.000000) translate(-13.500000, -455.462375) "></path>
            <path d="M304.315636,403.383679 C307.82796,403.383679 310.683813,406.239532 310.683813,409.743494 C310.683813,413.255818 307.82796,416.111671 304.315636,416.111671 C300.803312,416.111671 297.955821,413.255818 297.955821,409.743494 C297.955821,406.239532 300.803312,403.383679 304.315636,403.383679 M304.315636,419.247675 C309.559034,419.247675 313.819817,414.98271 313.819817,409.743494 C313.819817,404.508458 309.559034,400.247675 304.315636,400.247675 C299.0806,400.247675 294.819817,404.508458 294.819817,409.743494 C294.819817,414.98271 299.0806,419.247675 304.315636,419.247675" id="Fill-18" fill="#FEFEFE" fill-rule="nonzero" transform="translate(304.319817, 409.747675) rotate(30.000000) translate(-304.319817, -409.747675) "></path>
            <path d="M414.330776,180.177056 C414.330776,176.668141 417.190181,173.815841 420.697552,173.815841 C424.200743,173.815841 427.060148,176.668141 427.060148,180.177056 C427.060148,183.690153 424.200743,186.542453 420.697552,186.542453 C417.190181,186.542453 414.330776,183.690153 414.330776,180.177056 M430.195462,180.177056 C430.195462,174.936686 425.931436,170.679147 420.697552,170.679147 C415.459488,170.679147 411.195462,174.936686 411.195462,180.177056 C411.195462,185.417426 415.459488,189.679147 420.697552,189.679147 C425.931436,189.679147 430.195462,185.417426 430.195462,180.177056" id="Fill-20" fill="#FEFEFE" fill-rule="nonzero" transform="translate(420.695462, 180.179147) rotate(30.000000) translate(-420.695462, -180.179147) "></path>
            <path d="M229.562178,101.595702 C226.048307,101.595702 223.199562,98.7398486 223.199562,95.2358866 C223.199562,91.7235626 226.048307,88.8677096 229.562178,88.8677096 C233.076049,88.8677096 235.924794,91.7235626 235.924794,95.2358866 C235.924794,98.7398486 233.076049,101.595702 229.562178,101.595702 M229.562178,85.7317056 C224.316471,85.7317056 220.062178,89.9966706 220.062178,95.2358866 C220.062178,100.470923 224.316471,104.731706 229.562178,104.731706 C234.799518,104.731706 239.062178,100.470923 239.062178,95.2358866 C239.062178,89.9966706 234.799518,85.7317056 229.562178,85.7317056" id="Fill-22" fill="#FEFEFE" fill-rule="nonzero" transform="translate(229.562178, 95.231706) rotate(30.000000) translate(-229.562178, -95.231706) "></path>
            <path d="M197.320791,377.43287 C193.816829,377.43287 190.960976,374.577645 190.960976,371.070274 C190.960976,367.558723 193.816829,364.703498 197.320791,364.703498 C200.833115,364.703498 203.688968,367.558723 203.688968,371.070274 C203.688968,374.577645 200.833115,377.43287 197.320791,377.43287 M197.320791,361.568184 C192.085755,361.568184 187.824972,365.83221 187.824972,371.070274 C187.824972,376.304158 192.085755,380.568184 197.320791,380.568184 C202.564189,380.568184 206.824972,376.304158 206.824972,371.070274 C206.824972,365.83221 202.564189,361.568184 197.320791,361.568184" id="Fill-24" fill="#FEFEFE" fill-rule="nonzero" transform="translate(197.324972, 371.068184) rotate(30.000000) translate(-197.324972, -371.068184) "></path>
            <path d="M265.454766,244.691992 C268.96709,244.691992 271.822943,247.547217 271.822943,251.054588 C271.822943,254.566139 268.96709,257.421364 265.454766,257.421364 C261.942442,257.421364 259.094951,254.566139 259.094951,251.054588 C259.094951,247.547217 261.942442,244.691992 265.454766,244.691992 M265.454766,260.556678 C270.698164,260.556678 274.958947,256.292652 274.958947,251.054588 C274.958947,245.820704 270.698164,241.556678 265.454766,241.556678 C260.21973,241.556678 255.958947,245.820704 255.958947,251.054588 C255.958947,256.292652 260.21973,260.556678 265.454766,260.556678" id="Fill-26" fill="#FEFEFE" fill-rule="nonzero" transform="translate(265.458947, 251.056678) rotate(30.000000) translate(-265.458947, -251.056678) "></path>
            <path d="M270.511799,280.95034 C278.576628,293.331129 284.274512,306.955591 287.484951,321.221255 C262.81277,328.52407 235.90275,308.689848 235.63593,308.483286 L233.690731,311.065307 C234.676242,311.805486 254.085196,326.165824 275.796543,326.165824 C279.859083,326.165824 283.999086,325.619296 288.117571,324.431567 C288.87069,328.248654 289.43015,332.108775 289.821772,335.999019 C258.539357,337.939838 240.993835,361.685821 240.240716,362.718629 L242.86157,364.603504 C243.038015,364.366819 260.277987,341.016746 290.170359,339.209332 C290.40275,342.31206 290.527552,345.427698 290.527552,348.564853 C290.527552,360.003204 288.939547,371.312454 285.871125,382.208581 C284.059335,382.406536 282.221725,382.522727 280.358293,382.522727 C252.084051,382.522727 229.085946,359.521227 229.085946,331.248101 C229.085946,306.344513 246.93702,285.554943 270.511799,280.95034 M317.295556,295.784048 C316.873809,298.800709 313.66337,311.814093 290.557677,320.222873 C287.360149,306.150861 281.769853,292.715747 273.963236,280.421026 C276.063362,280.154217 278.185007,279.977779 280.358293,279.977779 C294.865518,279.977779 307.961183,286.062741 317.295556,295.784048 M327.060283,352.291569 C322.442587,347.721393 308.899354,335.857008 293.053729,335.861311 C292.640589,331.674135 292.03379,327.525688 291.211815,323.424579 C312.277631,315.889382 318.272459,304.407997 319.937928,298.701732 C327.241031,307.562366 331.63064,318.901739 331.63064,331.248101 C331.63064,338.753175 329.969474,345.862338 327.060283,352.291569 M289.339776,381.679267 C292.231753,370.925151 293.755206,359.809553 293.755206,348.564853 C293.755206,345.393271 293.634706,342.234599 293.402315,339.093141 C308.843408,339.239455 322.279053,351.981727 325.571259,355.377084 C318.28537,368.980029 305.030474,378.890685 289.339776,381.679267 M280.358293,385.750253 C310.409896,385.750253 334.858293,361.302821 334.858293,331.248101 C334.858293,301.197685 310.409896,276.750253 280.358293,276.750253 C250.302386,276.750253 225.858293,301.197685 225.858293,331.248101 C225.858293,361.302821 250.302386,385.750253 280.358293,385.750253" id="Fill-31" fill="#FEFEFE" fill-rule="nonzero" transform="translate(280.358293, 331.250253) rotate(30.000000) translate(-280.358293, -331.250253) "></path>
            <path d="M251.142608,93.6265779 L318.663126,93.6265779 L318.663126,144.642352 L296.11021,144.642352 L284.896388,167.121165 L273.695524,144.642352 L251.142608,144.642352 L251.142608,93.6265779 Z M284.896388,174.37882 L298.11021,147.89011 L321.902867,147.89011 L321.902867,90.3788199 L247.902867,90.3788199 L247.902867,147.89011 L271.695524,147.89011 L284.896388,174.37882 Z" id="Fill-33" fill="#FEFEFE" fill-rule="nonzero" transform="translate(284.902867, 132.378820) rotate(30.000000) translate(-284.902867, -132.378820) "></path>
            <path d="M274.688548,113.992966 C274.688548,110.163178 277.895373,107.044029 281.83381,107.044029 C284.221405,107.044029 287.507087,110.686583 289.014119,112.9802 L290.398486,115.086583 L291.782853,112.9802 C293.298647,110.686583 296.584329,107.044029 298.971924,107.044029 C302.90598,107.044029 306.117186,110.163178 306.117186,113.992966 C306.117186,115.601476 305.534525,117.129136 304.386727,118.469561 L290.192583,136.546157 L276.484721,118.635519 C275.792537,117.473817 274.688548,115.18871 274.688548,113.992966 L274.688548,113.992966 Z M306.953939,120.465306 C308.552971,118.597221 309.402867,116.358923 309.402867,113.992966 C309.402867,108.405731 304.719676,103.85254 298.971924,103.85254 C295.471578,103.85254 292.194659,107.171689 290.398486,109.38871 C288.602314,107.171689 285.334156,103.85254 281.83381,103.85254 C276.081677,103.85254 271.402867,108.405731 271.402867,113.992966 C271.402867,116.435519 273.413704,119.861051 273.746653,120.38871 L290.157536,141.85254 L306.953939,120.465306 Z" id="Fill-35" fill="#FEFEFE" fill-rule="nonzero" transform="translate(290.402867, 122.852540) rotate(30.000000) translate(-290.402867, -122.852540) "></path>
            <path d="M153.862125,307.355929 L153.862125,286.378748 C155.519776,285.216 160.835692,281.953365 167.501472,282.595479 C173.30545,283.172515 178.748878,286.556631 183.686656,292.652378 C190.378818,300.917431 200.847962,307.828837 213.10227,307.828837 C219.433882,307.828837 226.249159,305.967573 233.266695,301.503143 L233.266695,307.355929 C233.266695,319.195996 223.501063,328.827711 211.492985,328.827711 L175.622644,328.827711 C163.627757,328.827711 153.862125,319.195996 153.862125,307.355929 L153.862125,307.355929 Z M157.067503,214.422895 C162.493343,220.492611 175.640232,224.145721 193.562212,224.145721 C211.479794,224.145721 224.626683,220.492611 230.052523,214.422895 C232.026755,219.950285 233.266695,225.86381 233.266695,230.488769 L233.266695,261.514172 C231.824495,263.657445 223.615384,275.16344 213.427644,275.16344 L213.392469,275.16344 C206.906963,275.146085 200.70726,270.430016 194.973633,261.154067 L194.714213,260.741899 C191.064742,254.83705 184.27145,243.838673 173.459343,242.576137 C167.250846,241.868944 160.673005,244.493803 153.862125,250.407329 L153.862125,230.488769 C153.862125,225.850795 155.093271,219.937269 157.067503,214.422895 L157.067503,214.422895 Z M176.611958,194.391531 L185.256368,206.85202 L185.13765,206.85202 C185.13765,212.756869 194.793358,213.394644 198.939685,213.394644 C205.816519,213.394644 210.996129,210.513807 210.996129,206.691491 C210.996129,204.110018 208.590996,201.906004 204.734869,200.782304 C204.651327,198.903686 204.08412,197.020729 202.932118,195.36338 L202.91453,195.337348 C218.158766,197.333109 229.502904,202.443992 229.502904,207.667679 C229.502904,214.036759 218.255499,220.891763 193.562212,220.891763 C168.864528,220.891763 157.617122,214.036759 157.617122,207.667679 C157.617122,203.446211 166.863914,197.068454 176.611958,194.391531 L176.611958,194.391531 Z M207.698415,206.691491 C207.698415,208.023445 204.598563,209.915079 199.704755,210.101639 C199.854251,210.010528 200.030129,209.975819 200.175229,209.876031 C202.307751,208.435613 203.688394,206.35308 204.334746,204.070971 C206.467268,204.795519 207.698415,205.854139 207.698415,206.691491 L207.698415,206.691491 Z M177.513334,186.195896 C177.873884,184.304262 178.955534,182.664267 180.551628,181.588292 C181.80476,180.737924 183.242563,180.334433 184.658382,180.334433 C186.975576,180.334433 189.261992,181.427763 190.669017,183.453894 L198.064691,194.109521 L198.003134,194.808038 C198.200997,194.825392 198.390066,194.842746 198.587929,194.860101 L200.210404,197.198612 C202.479232,200.469924 201.626223,204.951709 198.310921,207.190431 C196.723621,208.270745 194.802152,208.674236 192.858699,208.314132 C190.946025,207.958365 189.279579,206.895406 188.189135,205.316152 L178.656541,191.571434 C177.557303,189.996519 177.152784,188.08753 177.513334,186.195896 L177.513334,186.195896 Z M153.862125,254.850066 C160.738959,248.164268 167.180495,245.101209 173.072411,245.808402 C182.297218,246.884378 188.540891,257.002017 191.895766,262.433957 L192.155187,262.846125 C198.535165,273.16334 205.680213,278.400043 213.392469,278.417398 L213.427644,278.417398 C222.230344,278.417398 229.419362,271.592764 233.266695,266.976482 L233.266695,297.598394 C208.173286,315.204475 189.723672,294.904117 186.26327,290.621908 C180.731903,283.797274 174.514612,280.005329 167.782877,279.354537 C167.079365,279.280781 166.384646,279.250411 165.694325,279.250411 C160.602653,279.250411 156.412357,281.050934 153.862125,282.50003 L153.862125,254.850066 Z M211.492985,332.081669 C225.321402,332.081669 236.56441,320.992181 236.56441,307.355929 L236.56441,299.251404 L236.56441,256.27313 L236.56441,230.488769 C236.56441,224.800851 234.897965,217.303732 232.229015,210.800155 C232.585168,209.802275 232.800618,208.75667 232.800618,207.667679 C232.800618,198.873315 216.888046,193.441375 200.439046,191.766672 L193.39073,181.618662 C191.80343,179.323537 189.389503,177.778992 186.606232,177.267036 C183.822961,176.746403 181.017705,177.332115 178.68732,178.902692 C176.361332,180.46893 174.800414,182.850827 174.277177,185.597168 C173.894642,187.597267 174.118886,189.61906 174.879559,191.45863 C164.775361,194.465287 154.319408,201.467804 154.319408,207.667679 C154.319408,208.761008 154.534858,209.810952 154.895409,210.813171 C152.226458,217.308071 150.56441,224.783496 150.56441,230.488769 L150.56441,307.355929 C150.56441,320.992181 161.807418,332.081669 175.622644,332.081669 L211.492985,332.081669 Z" id="Fill-37" fill="#FEFEFE" fill-rule="nonzero" transform="translate(193.564410, 254.581669) rotate(30.000000) translate(-193.564410, -254.581669) "></path>
            <path d="M239.747423,233.252226 L238.333615,230.346097 C237.999921,230.504691 204.82811,245.566843 172.161231,230.346097 L170.747423,233.252226 C182.172049,238.575844 193.644973,240.346097 203.866545,240.346097 C224.156014,240.346097 239.514715,233.355098 239.747423,233.252226" id="Fill-39" fill="#FEFEFE" fill-rule="nonzero" transform="translate(205.247423, 235.346097) rotate(30.000000) translate(-205.247423, -235.346097) "></path>
            <path d="M217.910181,193.127073 C218.133462,193.078892 218.356742,193.056991 218.566888,193.056991 C220.055424,193.056991 221.399485,194.099457 221.714704,195.610593 C222.073704,197.349496 220.96168,199.057737 219.227974,199.421286 C217.481133,199.789215 215.791207,198.667908 215.423451,196.937766 C215.064451,195.203243 216.176475,193.490622 217.910181,193.127073 M218.566888,202.772068 C219.004693,202.772068 219.46001,202.728267 219.902193,202.636285 C221.605253,202.277116 223.058764,201.278452 224.008801,199.824256 C224.954459,198.370061 225.282812,196.635538 224.932569,194.936057 C224.569191,193.236575 223.570996,191.778 222.117484,190.831897 C220.663973,189.881414 218.925888,189.557286 217.235962,189.912074 C213.729147,190.652312 211.478831,194.103837 212.205587,197.607922 C212.849159,200.669617 215.55917,202.772068 218.566888,202.772068" id="Fill-41" fill="#FEFEFE" fill-rule="nonzero" transform="translate(218.569220, 196.272068) rotate(30.000000) translate(-218.569220, -196.272068) "></path>
            <path d="M107.676707,409.841886 C112.71328,401.494361 119.127909,396.789985 126.760562,395.867 L126.324918,392.841886 C117.585375,393.903115 110.326131,399.123876 104.760562,408.374055 L107.676707,409.841886 Z" id="Fill-43" fill="#FEFEFE" fill-rule="nonzero" transform="translate(115.760562, 401.341886) rotate(30.000000) translate(-115.760562, -401.341886) "></path>
            <path d="M145.560509,426.578785 L145.347676,426.886383 L145.347676,427.328284 C144.526747,429.394823 130.614399,433.094664 105.825834,433.094664 C81.0372704,433.094664 67.1205784,429.394823 66.3083374,427.401934 L66.3083374,426.986027 L66.1041904,426.622108 C65.5265004,425.565011 64.0192934,422.04713 64.7316334,419.85062 C64.9097184,419.274415 65.2311404,418.841178 65.7132724,418.503254 C69.1750714,419.413051 85.5979844,423.42049 105.825834,423.42049 C126.040655,423.42049 141.972748,419.231091 145.738594,418.148 C148.800788,420.972703 145.703846,426.340505 145.560509,426.578785 L145.560509,426.578785 Z M140.191898,444.991342 C133.741746,446.278055 105.08309,451.173629 71.4467414,444.891698 L70.1610544,432.735078 C81.9841614,436.287618 104.540148,436.343939 105.825834,436.343939 C107.107178,436.343939 129.654477,436.287618 141.481928,432.735078 L140.191898,444.991342 Z M129.958525,541.910713 L129.967212,541.984363 C128.629403,543.119443 120.498302,545.14699 106.060385,545.14699 C91.1055884,545.14699 82.9093344,542.972142 82.0536584,541.893383 L81.5932434,541.070234 L78.3269034,510.085149 C88.4777484,511.91774 97.9814074,512.593589 106.182004,512.593589 C119.25605,512.593589 129.094161,511.00361 133.307392,510.184793 L129.958525,541.910713 Z M126.983202,549.713305 C126.983202,551.454916 125.558522,552.875932 123.808077,552.875932 L88.4169394,552.875932 C86.6664944,552.875932 85.2418144,551.454916 85.2418144,549.713305 L85.2418144,546.529015 C92.6909794,548.322615 104.292566,548.396265 106.060385,548.396265 C107.832548,548.396265 119.53838,548.322615 126.983202,546.503021 L126.983202,549.713305 Z M71.8072544,448.279608 C104.001549,454.102309 131.626443,449.899914 139.835728,448.366256 L133.663562,506.801215 C128.499097,507.884306 105.804117,511.965396 77.9707334,506.766556 L74.2917574,471.873676 L71.8072544,448.279608 Z M98.5373804,386.01917 C98.6546554,390.399192 102.242417,393.934403 106.664137,393.934403 C111.124949,393.934403 112.202147,391.672908 114.334823,387.175912 L114.647558,386.326768 C129.220124,389.649693 140.522006,400.740551 144.070676,415.232317 C139.410061,416.5017 124.307584,420.171215 105.825834,420.171215 C87.3744904,420.171215 72.2112034,416.783304 67.4897794,415.604901 C71.0558224,400.471944 83.2264124,388.878532 98.5373804,386.01917 L98.5373804,386.01917 Z M109.496123,364.430988 C110.169371,365.49675 111.00333,366.358891 112.05881,366.913434 C113.162068,367.485306 114.34351,367.697592 115.477173,367.697592 C116.454469,367.697592 117.353581,367.524297 118.191884,367.312012 L111.676579,385.174358 L111.389905,385.789555 C109.261572,390.269221 108.996616,390.685129 106.664137,390.685129 C104.049328,390.685129 101.912308,388.631587 101.777658,386.062494 L109.496123,364.430988 Z M116.33285,359.011197 C118.326533,360.050965 119.364639,362.134834 119.74687,363.06196 L119.629594,363.365226 C118.830384,363.755139 115.698694,365.128499 113.570361,364.03241 C112.34114,363.39122 111.563647,361.874892 111.21182,359.626393 L111.559303,358.651611 C113.383589,358.201045 114.986354,358.309354 116.33285,359.011197 L116.33285,359.011197 Z M147.510757,415.466265 C143.996836,399.414847 131.69594,387.058938 115.772534,383.276782 L123.191295,363.118281 L123.034927,362.602729 C122.987148,362.425102 121.697118,358.157721 117.870462,356.147503 C115.529296,354.921443 112.814585,354.795805 109.795827,355.783584 L109.031365,356.034862 L107.941137,359.097845 L107.832548,359.110842 C107.836892,359.175827 107.85861,359.232148 107.867297,359.301466 L99.6058904,382.453632 C81.8929474,385.027058 67.6852384,398.41407 64.0279804,415.851845 C62.9160344,416.601345 62.0386404,417.571795 61.6260044,418.858508 C60.4966844,422.363392 62.4556194,426.64377 63.0941194,427.882827 C63.3373574,429.282182 64.7186024,430.434591 66.7426904,431.409373 L78.6613554,544.310844 L79.9079504,544.310844 C80.4856414,544.809066 81.2935394,545.246635 82.2708344,545.627883 L81.9841614,545.627883 L81.9841614,549.713305 C81.9841614,553.248516 84.8682694,556.125206 88.4169394,556.125206 L123.808077,556.125206 C127.356746,556.125206 130.240855,553.248516 130.240855,549.713305 L130.240855,545.627883 L129.828219,545.627883 C130.861981,545.224973 131.717657,544.757077 132.299691,544.224196 L133.04678,544.146214 L133.142337,542.855169 L133.294361,542.097004 L133.233552,541.932374 L136.738786,508.716121 L143.831782,444.176857 L143.545108,444.237511 L144.900292,431.409373 C146.911349,430.443256 148.28825,429.303843 148.544519,427.917486 C150.225468,424.876165 151.828233,418.932158 147.510757,415.466265 L147.510757,415.466265 Z" id="Fill-45" fill="#FEFEFE" fill-rule="nonzero" transform="translate(105.782032, 455.625206) rotate(30.000000) translate(-105.782032, -455.625206) "></path>
            <path d="M240.941975,492.729805 L240.941975,485.636175 C244.122935,486.152702 250.268757,486.578836 254.465377,483.204196 C257.521,480.755 258.921314,476.859529 258.636065,471.724395 L258.636065,444.981237 L255.394598,444.981237 L255.403242,471.814787 C255.619339,475.938391 254.625289,478.921331 252.438379,480.681825 C247.965154,484.275989 239.82691,482.115186 239.753437,482.093664 L237.700508,481.534094 L237.700508,504.855265 L226.835109,504.855265 L226.835109,493.681075 L223.593642,493.681075 L223.593642,504.855265 L218.191196,504.855265 L218.191196,493.681075 L214.949729,493.681075 L214.949729,504.855265 L209.547283,504.855265 L209.547283,493.681075 L206.305816,493.681075 L206.305816,504.855265 L199.217807,504.855265 L199.217807,482.037707 L197.597073,482.037707 C191.399388,482.037707 186.978026,480.565607 184.065028,477.535318 C178.904612,472.172052 179.310875,462.711008 179.67392,454.369106 C179.760359,452.350348 179.842476,450.413374 179.842476,448.635662 C179.842476,423.093427 200.708882,402.311845 226.355372,402.311845 L238.504392,402.311845 C264.14656,402.311845 285.004322,423.093427 285.004322,448.635662 C285.004322,476.78205 270.184333,491.60636 240.941975,492.729805 M238.504392,399.083555 L226.355372,399.083555 C198.919592,399.083555 176.601009,421.311411 176.601009,448.635662 C176.601009,450.37033 176.518892,452.259956 176.432452,454.231365 C176.069408,462.775574 175.606959,473.411715 181.718205,479.764991 C184.951029,483.131022 189.744078,484.960386 195.97634,485.231563 L195.97634,508.083555 L240.941975,508.083555 L240.941975,495.958096 C272.336667,494.813129 288.245788,478.899809 288.245788,448.635662 C288.245788,421.311411 265.927206,399.083555 238.504392,399.083555" id="Fill-47" fill="#FEFEFE" fill-rule="nonzero" transform="translate(232.245788, 453.583555) rotate(30.000000) translate(-232.245788, -453.583555) "></path>
            <path d="M232.178801,460.959472 C228.727005,460.959472 225.91891,458.151377 225.91891,454.699581 C225.91891,451.247785 228.727005,448.43969 232.178801,448.43969 C235.630597,448.43969 238.438692,451.247785 238.438692,454.699581 C238.438692,458.151377 235.630597,460.959472 232.178801,460.959472 M232.178801,445.199581 C226.938464,445.199581 222.678801,449.459244 222.678801,454.699581 C222.678801,459.939918 226.938464,464.199581 232.178801,464.199581 C237.419138,464.199581 241.678801,459.939918 241.678801,454.699581 C241.678801,449.459244 237.419138,445.199581 232.178801,445.199581" id="Fill-49" fill="#FEFEFE" fill-rule="nonzero" transform="translate(232.178801, 454.699581) rotate(30.000000) translate(-232.178801, -454.699581) "></path>
            <path d="M204.465988,444.959472 C201.014192,444.959472 198.206097,442.151377 198.206097,438.699581 C198.206097,435.247785 201.014192,432.43969 204.465988,432.43969 C207.917784,432.43969 210.725879,435.247785 210.725879,438.699581 C210.725879,442.151377 207.917784,444.959472 204.465988,444.959472 M213.965988,438.699581 C213.965988,433.459244 209.706325,429.199581 204.465988,429.199581 C199.225651,429.199581 194.965988,433.459244 194.965988,438.699581 C194.965988,443.939918 199.225651,448.199581 204.465988,448.199581 C209.706325,448.199581 213.965988,443.939918 213.965988,438.699581" id="Fill-51" fill="#FEFEFE" fill-rule="nonzero" transform="translate(204.465988, 438.699581) rotate(30.000000) translate(-204.465988, -438.699581) "></path>
            <path d="M200.328406,469.17837 L203.856244,462.125091 L207.38818,469.17837 L200.328406,469.17837 Z M195.358293,472.25214 L212.358293,472.25214 L203.856244,455.25214 L195.358293,472.25214 Z" id="Fill-53" fill="#FEFEFE" fill-rule="nonzero" transform="translate(203.858293, 463.752140) rotate(30.000000) translate(-203.858293, -463.752140) "></path>
            <path d="M113.440161,92.6036441 C117.934342,87.0665211 143.897372,47.5732981 147.071252,42.7391651 C148.417356,42.2401291 152.773916,40.8515091 155.440319,42.9648151 C158.042213,45.0347271 158.665808,50.1596031 157.276697,57.5713631 L148.636689,83.7511911 C147.737853,86.0163781 147.802363,87.8996941 148.834519,89.3534051 C149.324794,90.0303571 150.038702,90.5250531 150.860126,90.9373001 L148.155016,91.8138661 C157.582043,121.378456 143.445804,134.171118 142.839412,134.70053 L144.938129,137.174009 C145.609031,136.592525 161.207492,122.65859 151.333198,91.1803081 C154.881235,92.6600571 160.979558,92.3215811 168.776638,91.8616001 C180.521716,91.1586111 194.623551,90.3471361 202.360421,96.1706621 C201.629311,96.0101031 200.876697,95.9189751 200.098279,95.9189751 L168.72073,95.9189751 C162.807334,95.9189751 157.990605,100.779145 157.990605,106.750211 C157.990605,111.241529 160.717218,115.103629 164.587804,116.739597 C160.717218,118.375565 157.990605,122.237665 157.990605,126.728983 C157.990605,131.042384 160.519388,134.748264 164.149138,136.488378 C160.519388,138.228493 157.990605,141.934373 157.990605,146.247774 C157.990605,150.001387 159.895794,153.308039 162.77723,155.256447 C159.925898,156.983543 157.990605,160.103599 157.990605,163.696653 C157.990605,166.252582 158.984056,168.561163 160.562395,170.314296 L142.125504,170.314296 C121.68881,170.314296 105.058193,153.538029 105.058193,132.912682 C105.058193,114.096879 108.687942,103.899201 113.440161,92.6036441 M200.098279,114.32687 L168.72073,114.32687 C164.587804,114.32687 161.216094,110.92909 161.216094,106.750211 C161.216094,102.571333 164.587804,99.1735531 168.72073,99.1735531 L200.098279,99.1735531 C204.239806,99.1735531 207.607216,102.571333 207.607216,106.750211 C207.607216,110.92909 204.239806,114.32687 200.098279,114.32687 M207.607216,126.728983 C207.607216,130.907861 204.239806,134.305641 200.098279,134.305641 L168.72073,134.305641 C164.587804,134.305641 161.216094,130.907861 161.216094,126.728983 C161.216094,122.550104 164.587804,119.152324 168.72073,119.152324 L200.098279,119.152324 C204.239806,119.152324 207.607216,122.550104 207.607216,126.728983 M207.607216,146.247774 C207.607216,150.426652 204.239806,153.824432 200.098279,153.824432 L195.883641,153.824432 L168.72073,153.824432 C164.587804,153.824432 161.216094,150.426652 161.216094,146.247774 C161.216094,142.068895 164.587804,138.671115 168.72073,138.671115 L200.098279,138.671115 C204.239806,138.671115 207.607216,142.068895 207.607216,146.247774 M195.883641,170.314296 L168.148743,170.314296 L167.770286,170.314296 C164.157739,170.314296 161.216094,167.34612 161.216094,163.696653 C161.216094,160.047186 164.157739,157.07901 167.770286,157.07901 L168.72073,157.07901 L195.883641,157.07901 C199.496188,157.07901 202.442134,160.047186 202.442134,163.696653 C202.442134,167.34612 199.496188,170.314296 195.883641,170.314296 M142.125504,173.568874 L167.770286,173.568874 L168.148743,173.568874 L195.883641,173.568874 C201.276658,173.568874 205.667622,169.142647 205.667622,163.696653 C205.667622,160.962807 204.558054,158.489328 202.768983,156.701479 C207.396484,155.490776 210.832704,151.281522 210.832704,146.247774 C210.832704,141.934373 208.303921,138.228493 204.678472,136.488378 C208.303921,134.748264 210.832704,131.042384 210.832704,126.728983 C210.832704,122.237665 208.110392,118.375565 204.235505,116.739597 C208.110392,115.103629 210.832704,111.241529 210.832704,106.750211 C210.832704,104.094475 209.847855,101.690427 208.269516,99.8027711 L209.215659,99.3080751 C202.627062,86.6022021 183.755806,87.7261161 168.59171,88.6113611 C160.889244,89.0713421 152.945942,89.5356621 151.457916,87.4527311 C151.113864,86.9623751 151.161172,86.1248631 151.660047,84.8707661 L160.394669,58.3915171 C162.093426,49.3698261 161.099976,43.3249891 157.435821,40.4088871 C152.709406,36.6465941 145.643436,39.7970261 145.342391,39.9315481 L144.920927,40.1224841 L144.662888,40.5173721 C144.366143,40.9730131 114.842174,85.9382681 110.821065,90.6899521 L110.567327,91.1065381 C105.621578,102.836038 101.832704,113.359175 101.832704,132.912682 C101.832704,155.330217 119.908341,173.568874 142.125504,173.568874" id="Fill-55" fill="#FEFEFE" fill-rule="nonzero" transform="translate(156.332704, 106.068874) rotate(30.000000) translate(-156.332704, -106.068874) "></path>
            <path d="M257.08872,205.947549 L266.272236,188.635679 C267.019936,187.352024 268.50654,186.356537 269.201461,186.007244 C270.248241,185.470205 271.391783,185.195136 272.544121,185.195136 C273.300617,185.195136 274.052715,185.313022 274.791619,185.548796 C276.656471,186.142595 278.178261,187.426249 279.071103,189.155253 C279.972741,190.888623 280.135476,192.862133 279.537316,194.713389 C278.934757,196.569012 277.646074,198.075341 275.899975,198.961674 C274.98954,199.424488 265.102306,203.044045 257.08872,205.947549 M282.677656,195.713243 C283.548507,193.028047 283.306604,190.168205 282.009124,187.662023 C280.711645,185.147108 278.50373,183.295851 275.798815,182.431349 C273.0939,181.566847 270.221852,181.806987 267.688468,183.095007 C267.217857,183.330781 264.76804,184.662463 263.386994,187.059491 L250.192286,211.920471 L254.203477,210.475268 C256.411391,209.676259 275.842797,202.67292 277.404171,201.878277 C279.937555,200.58589 281.802407,198.398438 282.677656,195.713243" id="Fill-57" fill="#FEFEFE" fill-rule="nonzero" transform="translate(266.692287, 196.920471) rotate(30.000000) translate(-266.692287, -196.920471) "></path>
            <path d="M229.984029,165.748813 L223.273142,162.348294 L216.575571,165.748813 L217.858274,158.554257 L212.43009,153.459895 L219.926576,152.411936 L223.273142,145.867542 L226.628586,152.411936 L234.12951,153.459895 L228.701326,158.554257 L229.984029,165.748813 Z M228.838917,149.477653 L223.273142,138.613103 L217.716244,149.477653 L205.2798,151.222824 L214.276471,159.674931 L212.150469,171.613103 L223.273142,165.975514 L234.404692,171.613103 L232.283129,159.674931 L241.2798,151.222824 L228.838917,149.477653 Z" id="Fill-59" fill="#FEFEFE" fill-rule="nonzero" transform="translate(223.279800, 155.113103) rotate(30.000000) translate(-223.279800, -155.113103) "></path>
            <path d="M366.976088,152.466019 L360.272425,149.069338 L353.568763,152.466019 L354.847342,145.270531 L349.426698,140.179787 L356.916154,139.127414 L360.272425,132.58645 L363.619817,139.127414 L371.122592,140.179787 L365.693069,145.270531 L366.976088,152.466019 Z M365.830694,136.19275 L360.272425,125.33107 L354.705278,136.19275 L342.274645,137.938148 L351.264656,146.39135 L349.147009,158.33107 L360.272425,152.697028 L371.397841,158.33107 L369.275755,146.39135 L378.274645,137.938148 L365.830694,136.19275 Z" id="Fill-61" fill="#FEFEFE" fill-rule="nonzero" transform="translate(360.274645, 141.831070) rotate(30.000000) translate(-360.274645, -141.831070) "></path>
            <g id="Group-65" transform="translate(360.136805, 312.069818) rotate(30.000000) translate(-360.136805, -312.069818) translate(342.136805, 295.069818)">
                <g id="Fill-63-Clipped">
                    <g>
                        <mask id="mask-8" fill="white">
                            <use xlink:href="#path-7"></use>
                        </mask>
                        <g id="path-3"></g>
                        <path d="M24.6852918,27.9620625 L18.0712632,24.4708216 L11.4528545,27.9620625 L12.7187183,20.5662599 L7.3617931,15.3293985 L14.7598688,14.2521264 L18.0712632,7.52467222 L21.3738974,14.2521264 L28.7763532,15.3293985 L23.4194281,20.5662599 L24.6852918,27.9620625 Z M23.5552128,11.2357646 L18.0712632,0.0673112129 L12.5785534,11.2357646 L0.305369218,13.0297524 L9.18393608,21.7182815 L7.08584357,33.9903892 L18.0712632,28.1995021 L29.0479226,33.9903892 L26.9542103,21.7182815 L35.8327771,13.0297524 L23.5552128,11.2357646 Z" id="Fill-63" fill="#FEFEFE" fill-rule="nonzero" mask="url(#mask-8)"></path>
                    </g>
                </g>
            </g>
            <path d="M82.7865044,353.389362 L84.9910864,355.852793 C85.4518804,355.476796 96.1721154,346.560905 95.6796984,334.870413 C95.4673724,328.085173 91.7945734,322.021676 84.7606894,316.852793 L82.6961524,319.428591 C88.8852474,323.970812 92.1108044,329.2002 92.2915084,334.98278 C92.7206794,345.13903 83.1930874,353.060905 82.7865044,353.389362" id="Fill-70" fill="#FEFEFE" fill-rule="nonzero" transform="translate(89.196152, 336.352793) rotate(30.000000) translate(-89.196152, -336.352793) "></path>
            <path d="M93.2075352,313.035806 L91.0394192,315.423129 C110.398491,335.296822 99.5620722,359.019464 91.1268092,368.785787 L93.4280922,371.035806 C102.570801,360.441228 114.297771,334.690025 93.2075352,313.035806" id="Fill-71" fill="#FEFEFE" fill-rule="nonzero" transform="translate(98.039419, 342.035806) rotate(30.000000) translate(-98.039419, -342.035806) "></path>
            <path d="M101.15733,311.285806 L98.6326859,313.528112 C128.88259,344.83246 99.0267319,380.84565 98.7243249,381.206177 L101.391008,383.285806 C101.711743,382.903295 133.427865,344.691766 101.15733,311.285806" id="Fill-72" fill="#FEFEFE" fill-rule="nonzero" transform="translate(107.132686, 347.285806) rotate(30.000000) translate(-107.132686, -347.285806) "></path>
            <path d="M39.1641907,307.946699 L65.1901307,307.946699 L77.6063359,296.627603 L77.6063359,342.810035 L65.1901307,331.490939 L39.1641907,331.490939 L39.1641907,307.946699 Z M80.8852633,350.218819 L80.8852633,289.218819 L63.909163,304.695331 L35.8852633,304.695331 L35.8852633,334.742307 L63.909163,334.742307 L80.8852633,350.218819 Z" id="Fill-73" fill="#FEFEFE" fill-rule="nonzero" transform="translate(58.385263, 319.718819) rotate(30.000000) translate(-58.385263, -319.718819) "></path>
            <path d="M406.175332,216.417832 C404.95579,219.519411 401.292825,226.357676 391.410631,232.07798 C388.906447,233.526543 386.154883,234.770655 383.238399,235.771165 L380.855736,236.588972 L382.570038,238.42904 C385.052522,241.091265 387.179125,243.957942 388.906447,246.95512 C394.570155,256.786213 394.526755,263.733229 394.140495,266.639057 L378.941793,261.997563 L376.77179,277.818662 C373.677365,276.596301 366.850535,272.924866 361.147767,263.019822 C360.054086,261.123204 359.055884,259.017785 358.179203,256.755763 L356.664541,252.866826 L355.145539,256.755763 C354.264517,259.017785 353.266316,261.123204 352.172634,263.019822 C346.474206,272.924866 339.643036,276.596301 336.548612,277.818662 L334.387289,261.997563 L319.179907,266.639057 C318.789306,263.724529 318.754586,256.777513 324.418294,246.95512 C325.919936,244.336396 327.786139,241.765521 329.956142,239.320798 L331.692145,237.35023 L329.166261,236.658573 C325.255915,235.588463 321.42803,234.005048 318.094905,232.07798 C308.212711,226.357676 304.549746,219.519411 303.330204,216.417832 L319.110467,214.247161 L314.48402,199.008967 C317.383144,198.617463 324.318474,198.573963 334.122548,204.250766 C334.829969,204.65967 335.51569,205.090324 336.192731,205.538379 L339.287156,207.561148 L338.692575,203.911463 C338.271594,201.323189 338.058934,198.813215 338.058934,196.446793 C338.058934,185.006184 342.1342,178.411522 344.204383,175.801497 L353.969397,188.416617 L364.828093,176.780257 C366.616175,179.107529 370.11422,185.101885 370.11422,196.446793 C370.11422,199.204719 369.84514,202.053996 369.319999,204.920673 L368.590878,208.87051 L371.863243,206.547588 C373.004664,205.734131 374.176466,204.951123 375.378648,204.250766 C385.195742,198.569613 392.113712,198.608763 395.030196,199.008967 L390.390729,214.247161 L406.175332,216.417832 Z M399.105462,196.777396 L397.6559,196.251041 C397.282659,196.12054 388.316206,193.00156 373.751145,201.42759 C373.525465,201.562441 373.295445,201.697292 373.065424,201.836494 C373.269405,200.018176 373.369225,198.212909 373.369225,196.446793 C373.369225,179.594733 366.199535,173.369824 365.895734,173.117522 L364.706572,172.121363 L354.195077,183.392319 L344.534223,170.899001 L343.227881,172.038712 C342.889361,172.338865 334.803929,179.616483 334.803929,196.446793 C334.803929,197.925807 334.877709,199.452671 335.02961,201.014336 C320.902889,193.101611 312.222877,196.12054 311.858316,196.251041 L310.408754,196.777396 L314.883301,211.537085 L299.250598,213.686006 L299.589118,215.382522 C299.675919,215.830576 301.928382,226.483827 316.467403,234.901156 C319.349167,236.567222 322.560772,237.994036 325.885216,239.081546 C324.257714,241.108665 322.816832,243.196685 321.59729,245.323855 C313.186358,259.918243 316.298143,268.896728 316.432683,269.270832 L316.957824,270.723745 L331.683465,266.234503 L333.827428,281.899001 L335.51569,281.568398 C335.962711,281.477047 346.600066,279.228076 354.993638,264.651088 C355.579539,263.637528 356.13072,262.571768 356.664541,261.462508 C357.189682,262.571768 357.749542,263.637528 358.326763,264.651088 C366.724675,279.228076 377.353351,281.477047 377.804711,281.568398 L379.501654,281.899001 L381.645617,266.234503 L396.358238,270.723745 L396.892059,269.270832 C397.030939,268.896728 400.129703,259.918243 391.731791,245.323855 C390.264869,242.787781 388.537547,240.338708 386.567184,238.020136 C388.850027,237.119677 391.02003,236.075668 393.038133,234.901156 C407.581494,226.483827 409.829617,215.830576 409.920758,215.382522 L410.250598,213.686006 L394.622235,211.537085 L399.105462,196.777396 Z" id="Fill-74" fill="#FEFEFE" fill-rule="nonzero" transform="translate(354.750598, 226.399001) rotate(30.000000) translate(-354.750598, -226.399001) "></path>
            <path d="M352.067585,236.783827 C348.348577,236.783827 345.329873,233.765123 345.329873,230.046115 C345.329873,226.335806 348.348577,223.308403 352.067585,223.308403 C355.782244,223.308403 358.805297,226.335806 358.805297,230.046115 C358.805297,233.765123 355.782244,236.783827 352.067585,236.783827 M352.067585,220.046115 C346.552144,220.046115 342.067585,224.535023 342.067585,230.046115 C342.067585,235.561556 346.552144,240.046115 352.067585,240.046115 C357.583026,240.046115 362.067585,235.561556 362.067585,230.046115 C362.067585,224.535023 357.583026,220.046115 352.067585,220.046115" id="Fill-75" fill="#FEFEFE" fill-rule="nonzero" transform="translate(352.067585, 230.046115) rotate(30.000000) translate(-352.067585, -230.046115) "></path>
            <path d="M94.9660193,280.145805 L112.166301,280.145805 C111.138093,284.908414 106.513269,294.268655 103.568276,299.812732 C100.623283,294.268655 95.994228,284.908414 94.9660193,280.145805 L94.9660193,280.145805 Z M103.568276,181.715659 C110.139503,181.715659 112.157839,182.657761 112.352479,185.905192 C111.501985,186.947148 108.891266,189.743064 105.049235,190.138139 C101.769968,190.450726 98.3299121,188.93989 94.7967668,185.705483 C95.0591082,182.618688 97.1324509,181.715659 103.568276,181.715659 L103.568276,181.715659 Z M94.7417598,189.868967 C97.1578388,191.679367 99.5739177,192.760396 101.981534,193.177179 L101.981534,276.416469 L105.155018,276.416469 L105.155018,193.38557 C105.239644,193.376887 105.32427,193.381229 105.413128,193.372546 C108.375046,193.051276 110.723424,191.696733 112.394792,190.350872 L112.394792,276.889691 L94.7417598,276.889691 L94.7417598,189.868967 Z M104.947684,303.971874 C106.030899,302.013864 115.568276,284.647925 115.568276,278.517748 L115.568276,186.430511 C115.568276,178.459545 108.057698,178.459545 103.568276,178.459545 C99.0830856,178.459545 91.568276,178.459545 91.568276,186.430511 L91.568276,278.517748 C91.568276,284.647925 101.09719,302.013864 102.188868,303.971874 L103.568276,306.459545 L104.947684,303.971874 Z" id="Fill-76" fill="#FEFEFE" fill-rule="nonzero" transform="translate(103.568276, 242.459545) rotate(30.000000) translate(-103.568276, -242.459545) "></path>
            <path d="M262.651413,43.9503787 C262.633221,41.6957872 262.61503,39.5720802 263.451834,38.7909951 C263.815662,38.4447845 264.497839,38.2716791 265.475626,38.2716791 C269.536854,38.2716791 272.829495,41.3369103 272.829495,45.103007 C272.829495,48.8691036 269.536854,51.9385569 265.475626,51.9385569 C264.497839,51.9385569 263.815662,51.7612295 263.451834,51.4192409 C262.61503,50.6381558 262.633221,48.5102267 262.651413,46.2598573 L262.660508,45.103007 L262.651413,43.9503787 Z M261.027831,53.6442778 C262.073836,54.6238007 263.529147,55.105118 265.475626,55.105118 C271.410567,55.105118 276.240381,50.6170454 276.240381,45.103007 C276.240381,39.5931906 271.410567,35.105118 265.475626,35.105118 C263.529147,35.105118 262.073836,35.5822132 261.027831,36.5617361 C259.195049,38.2759012 259.21324,40.9147021 259.249623,43.9757112 L259.249623,45.103007 L259.249623,46.2303027 C259.21324,49.2913118 259.195049,51.9301127 261.027831,53.6442778 L261.027831,53.6442778 Z" id="Fill-78" fill="#FEFEFE" fill-rule="nonzero" transform="translate(267.740381, 45.105118) rotate(30.000000) translate(-267.740381, -45.105118) "></path>
        </g>
    </g>
</svg>