<?xml version="1.0" encoding="UTF-8"?>
<svg width="441px" height="533px" viewBox="0 0 441 533" version="1.1" xmlns="http://www.w3.org/2000/svg" xmlns:xlink="http://www.w3.org/1999/xlink">
    <!-- Generator: Sketch 63.1 (92452) - https://sketch.com -->
    <title>Group</title>
    <desc>Created with Sketch.</desc>
    <defs>
        <polygon id="path-1" points="0.41921006 0.672014458 122.492228 0.672014458 122.492228 105.324359 0.41921006 105.324359"></polygon>
        <polygon id="path-3" points="0.305369218 0.0673112129 35.830587 0.0673112129 35.830587 33.9903892 0.305369218 33.9903892"></polygon>
    </defs>
    <g id="Page-1" stroke="none" stroke-width="1" fill="none" fill-rule="evenodd">
        <g id="theme-bg-pattern" transform="translate(-110.000000, -109.000000)">
            <g id="Group" transform="translate(308.420471, 358.075657) rotate(30.000000) translate(-308.420471, -358.075657) translate(132.420471, 47.075657)">
                <path d="M210.354803,43.0738257 C213.867126,43.0738257 216.72298,45.9296796 216.72298,49.4378222 C216.72298,52.9459648 213.867126,55.8018187 210.354803,55.8018187 C206.842479,55.8018187 203.994987,52.9459648 203.994987,49.4378222 C203.994987,45.9296796 206.842479,43.0738257 210.354803,43.0738257 M210.354803,58.9378222 C215.5982,58.9378222 219.858984,54.6770387 219.858984,49.4378222 C219.858984,44.202787 215.5982,39.9378222 210.354803,39.9378222 C205.119767,39.9378222 200.858984,44.202787 200.858984,49.4378222 C200.858984,54.6770387 205.119767,58.9378222 210.354803,58.9378222" id="Fill-1" fill="#FEFEFE" fill-rule="nonzero"></path>
                <path d="M238.354803,43.0738257 C241.867126,43.0738257 244.72298,45.9296796 244.72298,49.4378222 C244.72298,52.9459648 241.867126,55.8018187 238.354803,55.8018187 C234.850841,55.8018187 231.994987,52.9459648 231.994987,49.4378222 C231.994987,45.9296796 234.850841,43.0738257 238.354803,43.0738257 M238.354803,58.9378222 C243.5982,58.9378222 247.858984,54.6770387 247.858984,49.4378222 C247.858984,44.202787 243.5982,39.9378222 238.354803,39.9378222 C233.119767,39.9378222 228.858984,44.202787 228.858984,49.4378222 C228.858984,54.6770387 233.119767,58.9378222 238.354803,58.9378222" id="Fill-3" fill="#FEFEFE" fill-rule="nonzero"></path>
                <path d="M266.363165,43.0738257 C269.875489,43.0738257 272.72298,45.9296796 272.72298,49.4378222 C272.72298,52.9459648 269.875489,55.8018187 266.363165,55.8018187 C262.850841,55.8018187 259.994987,52.9459648 259.994987,49.4378222 C259.994987,45.9296796 262.850841,43.0738257 266.363165,43.0738257 M266.363165,58.9378222 C271.5982,58.9378222 275.858984,54.6770387 275.858984,49.4378222 C275.858984,44.202787 271.5982,39.9378222 266.363165,39.9378222 C261.119767,39.9378222 256.858984,44.202787 256.858984,49.4378222 C256.858984,54.6770387 261.119767,58.9378222 266.363165,58.9378222" id="Fill-5" fill="#FEFEFE" fill-rule="nonzero"></path>
                <g id="Group-9" transform="translate(174.858984, 0.937822)">
                    <g id="Fill-7-Clipped">
                        <mask id="mask-2" fill="white">
                            <use xlink:href="#path-1"></use>
                        </mask>
                        <g id="path-2"></g>
                        <path d="M61.4557191,3.92603566 C93.3202399,3.92603566 119.245605,22.2977513 119.245605,44.8813706 C119.245605,54.6382236 114.245806,64.1128357 105.185564,71.5639971 L104.31114,72.2847971 L113.003432,97.6343778 L87.3767557,81.4337465 L86.6408546,81.6855923 C78.6628201,84.4385272 70.1912989,85.8367055 61.4557191,85.8367055 C29.5911983,85.8367055 3.66583288,67.4649899 3.66583288,44.8813706 C3.66583288,22.2977513 29.5911983,3.92603566 61.4557191,3.92603566 M61.4557191,89.093332 C70.2735467,89.093332 78.8576175,87.7212067 86.9655169,85.0160357 L119.076781,105.324359 L108.107525,73.3529706 C117.392866,65.3807489 122.492228,55.3112598 122.492228,44.8813706 C122.492228,20.5000935 95.1123757,0.669409157 61.4557191,0.669409157 C27.8077202,0.669409157 0.41921006,20.5000935 0.41921006,44.8813706 C0.41921006,69.2583055 27.8077202,89.093332 61.4557191,89.093332" id="Fill-7" fill="#FEFEFE" fill-rule="nonzero" mask="url(#mask-2)"></path>
                    </g>
                </g>
                <path d="M129.453333,540.473553 C127.951172,540.905187 126.038938,540.849075 124.174187,540.331114 C122.313752,539.813154 120.643246,538.86356 119.590007,537.719731 C118.731012,536.791718 118.351156,535.824859 118.5713,535.060868 C118.890725,533.899773 120.634613,533.019241 123.021667,533.019241 C123.966992,533.019241 125.002965,533.157363 126.09937,533.463823 C127.951172,533.981784 129.621678,534.931378 130.68355,536.07089 C131.542545,536.998903 131.913768,537.970078 131.702257,538.73407 C131.495063,539.489429 130.666284,540.128246 129.453333,540.473553 L129.453333,540.473553 Z M96.4144283,489.631429 L123.18138,503.348745 L120.332454,512.292194 L93.5655027,498.570561 L96.4144283,489.631429 Z M93.833129,522.327676 C95.6892472,522.845636 97.3554371,523.79523 98.4216259,524.934743 C99.2806202,525.862755 99.6518438,526.833931 99.4403327,527.597922 C99.2978864,528.10725 98.9093965,528.538884 98.2748631,528.892823 C96.7597526,529.764723 94.3122665,529.868315 91.9122625,529.194967 C90.0475112,528.677006 88.3770048,527.727412 87.3237656,526.5879 C86.4647714,525.655571 86.0849146,524.688712 86.3050589,523.92472 C86.7496639,522.301778 89.9654966,521.248592 93.833129,522.327676 L93.833129,522.327676 Z M126.966997,530.343112 C124.260518,529.59207 121.649003,529.630917 119.58569,530.312898 L122.857638,515.028751 L127.092178,501.721487 L94.4892452,485 L89.6503882,500.19782 L89.6892372,500.215085 L83.1885069,523.044188 C83.1841903,523.048504 83.1841903,523.05282 83.1841903,523.057137 C82.6532542,524.952008 83.2791545,526.989319 84.9453444,528.789231 C86.4216058,530.373327 88.5798828,531.625064 91.0446351,532.311361 C92.3568676,532.682566 93.6906827,532.863853 94.9640662,532.863853 C96.8115513,532.863853 98.5209067,532.475382 99.8676715,531.715707 C101.253285,530.93445 102.181344,529.807886 102.561201,528.465506 C103.083504,526.596532 102.431705,524.511742 100.787097,522.737728 C99.3237857,521.145 97.1568756,519.893262 94.7007564,519.206965 C92.1410399,518.494769 89.6849206,518.516351 87.6734065,519.099056 L92.6244939,501.71717 L119.456194,515.481966 L115.424532,534.288243 L115.437482,534.288243 C114.962661,536.131319 115.597194,538.177262 117.211585,539.921062 C118.687847,541.509474 120.846124,542.761212 123.30656,543.447509 C124.623109,543.814398 125.952607,544 127.225991,544 C128.322395,544 129.375635,543.861877 130.338226,543.589948 C132.664849,542.920916 134.300823,541.466311 134.823126,539.601653 C135.345429,537.73268 134.697946,535.647889 133.053339,533.873875 C131.58571,532.285463 129.4188,531.02941 126.966997,530.343112 L126.966997,530.343112 Z" id="Fill-10" fill="#FEFEFE" fill-rule="nonzero"></path>
                <path d="M245.783262,566.352113 C241.935446,567.419473 238.736815,566.377832 238.285396,564.766075 C237.838275,563.150031 240.022287,560.603797 243.878701,559.532149 C244.970707,559.227802 246.002523,559.094917 246.935457,559.094917 C249.308635,559.094917 251.049826,559.965095 251.376568,561.118187 C251.819389,562.734231 249.635377,565.280465 245.783262,566.352113 M259.394642,535.947336 C255.667205,535.981629 252.945788,535.955909 245.555403,528 L244.373113,529.09308 L242.812491,529.508879 L250.078198,556.338641 C248.061857,555.738518 245.585497,555.721372 243.010255,556.437232 C237.606116,557.937538 234.162429,561.975505 235.177048,565.627679 C235.950911,568.371096 238.99047,570 242.752301,570 C243.986182,570 245.314646,569.82425 246.647409,569.451317 C252.055847,567.946724 255.490936,563.91733 254.480616,560.269443 L247.464263,534.335579 C252.932891,539.093693 256.08423,539.183711 259.704187,539.162278 C266.144441,539.162278 268.857259,546.265156 268.969039,546.569504 L272,545.463564 C271.853826,545.077771 268.414438,535.947336 259.394642,535.947336" id="Fill-12" fill="#FEFEFE" fill-rule="nonzero"></path>
                <path d="M63.5041813,496.863996 C59.9918574,496.863996 57.1360035,494.008143 57.1360035,490.5 C57.1360035,486.991857 59.9918574,484.136004 63.5041813,484.136004 C67.0081426,484.136004 69.8639965,486.991857 69.8639965,490.5 C69.8639965,494.008143 67.0081426,496.863996 63.5041813,496.863996 M63.5041813,481 C58.2607835,481 54,485.260783 54,490.5 C54,495.735035 58.2607835,500 63.5041813,500 C68.7392165,500 73,495.735035 73,490.5 C73,485.260783 68.7392165,481 63.5041813,481" id="Fill-14" fill="#FEFEFE" fill-rule="nonzero"></path>
                <path d="M105.504181,572.864686 C101.991857,572.864686 99.1360035,570.009461 99.1360035,566.50209 C99.1360035,562.990539 101.991857,560.135314 105.504181,560.135314 C109.008143,560.135314 111.863996,562.990539 111.863996,566.50209 C111.863996,570.009461 109.008143,572.864686 105.504181,572.864686 M105.504181,557 C100.260783,557 96,561.264026 96,566.50209 C96,571.735974 100.260783,576 105.504181,576 C110.739217,576 115,571.735974 115,566.50209 C115,561.264026 110.739217,557 105.504181,557" id="Fill-16" fill="#FEFEFE" fill-rule="nonzero"></path>
                <path d="M334.495819,375.136004 C338.008143,375.136004 340.863996,377.991857 340.863996,381.495819 C340.863996,385.008143 338.008143,387.863996 334.495819,387.863996 C330.983495,387.863996 328.136004,385.008143 328.136004,381.495819 C328.136004,377.991857 330.983495,375.136004 334.495819,375.136004 M334.495819,391 C339.739217,391 344,386.735035 344,381.495819 C344,376.260783 339.739217,372 334.495819,372 C329.260783,372 325,376.260783 325,381.495819 C325,386.735035 329.260783,391 334.495819,391" id="Fill-18" fill="#FEFEFE" fill-rule="nonzero"></path>
                <path d="M314.135314,124.497909 C314.135314,120.988994 316.994719,118.136694 320.50209,118.136694 C324.005281,118.136694 326.864686,120.988994 326.864686,124.497909 C326.864686,128.011006 324.005281,130.863306 320.50209,130.863306 C316.994719,130.863306 314.135314,128.011006 314.135314,124.497909 M330,124.497909 C330,119.257539 325.735974,115 320.50209,115 C315.264026,115 311,119.257539 311,124.497909 C311,129.738279 315.264026,134 320.50209,134 C325.735974,134 330,129.738279 330,124.497909" id="Fill-20" fill="#FEFEFE" fill-rule="nonzero"></path>
                <path d="M112.5,152.863996 C108.986129,152.863996 106.137384,150.008143 106.137384,146.504181 C106.137384,142.991857 108.986129,140.136004 112.5,140.136004 C116.013871,140.136004 118.862616,142.991857 118.862616,146.504181 C118.862616,150.008143 116.013871,152.863996 112.5,152.863996 M112.5,137 C107.254293,137 103,141.264965 103,146.504181 C103,151.739217 107.254293,156 112.5,156 C117.73734,156 122,151.739217 122,146.504181 C122,141.264965 117.73734,137 112.5,137" id="Fill-22" fill="#FEFEFE" fill-rule="nonzero"></path>
                <path d="M222.495819,407.864686 C218.991857,407.864686 216.136004,405.009461 216.136004,401.50209 C216.136004,397.990539 218.991857,395.135314 222.495819,395.135314 C226.008143,395.135314 228.863996,397.990539 228.863996,401.50209 C228.863996,405.009461 226.008143,407.864686 222.495819,407.864686 M222.495819,392 C217.260783,392 213,396.264026 213,401.50209 C213,406.735974 217.260783,411 222.495819,411 C227.739217,411 232,406.735974 232,401.50209 C232,396.264026 227.739217,392 222.495819,392" id="Fill-24" fill="#FEFEFE" fill-rule="nonzero"></path>
                <path d="M221.495819,257.135314 C225.008143,257.135314 227.863996,259.990539 227.863996,263.49791 C227.863996,267.009461 225.008143,269.864686 221.495819,269.864686 C217.983495,269.864686 215.136004,267.009461 215.136004,263.49791 C215.136004,259.990539 217.983495,257.135314 221.495819,257.135314 M221.495819,273 C226.739217,273 231,268.735974 231,263.49791 C231,258.264026 226.739217,254 221.495819,254 C216.260783,254 212,258.264026 212,263.49791 C212,268.735974 216.260783,273 221.495819,273" id="Fill-26" fill="#FEFEFE" fill-rule="nonzero"></path>
                <path d="M264.653506,275.200087 C272.718335,287.580876 278.416219,301.205338 281.626658,315.471002 C256.954477,322.773817 230.044457,302.939595 229.777637,302.733033 L227.832438,305.315054 C228.817949,306.055233 248.226903,320.415571 269.93825,320.415571 C274.00079,320.415571 278.140793,319.869043 282.259278,318.681314 C283.012397,322.498401 283.571857,326.358522 283.963479,330.248766 C252.681064,332.189585 235.135542,355.935568 234.382423,356.968376 L237.003277,358.853251 C237.179722,358.616566 254.419694,335.266493 284.312066,333.459079 C284.544457,336.561807 284.669259,339.677445 284.669259,342.8146 C284.669259,354.252951 283.081254,365.562201 280.012832,376.458328 C278.201042,376.656283 276.363432,376.772474 274.5,376.772474 C246.225758,376.772474 223.227653,353.770974 223.227653,325.497848 C223.227653,300.59426 241.078727,279.80469 264.653506,275.200087 M311.437263,290.033795 C311.015516,293.050456 307.805077,306.06384 284.699384,314.47262 C281.501856,300.400608 275.91156,286.965494 268.104943,274.670773 C270.205069,274.403964 272.326714,274.227526 274.5,274.227526 C289.007225,274.227526 302.10289,280.312488 311.437263,290.033795 M321.20199,346.541316 C316.584294,341.97114 303.041061,330.106755 287.195436,330.111058 C286.782296,325.923882 286.175497,321.775435 285.353522,317.674326 C306.419338,310.139129 312.414166,298.657744 314.079635,292.951479 C321.382738,301.812113 325.772347,313.151486 325.772347,325.497848 C325.772347,333.002922 324.111181,340.112085 321.20199,346.541316 M283.481483,375.929014 C286.37346,365.174898 287.896913,354.0593 287.896913,342.8146 C287.896913,339.643018 287.776413,336.484346 287.544022,333.342888 C302.985115,333.489202 316.42076,346.231474 319.712966,349.626831 C312.427077,363.229776 299.172181,373.140432 283.481483,375.929014 M274.5,380 C304.551603,380 329,355.552568 329,325.497848 C329,295.447432 304.551603,271 274.5,271 C244.444093,271 220,295.447432 220,325.497848 C220,355.552568 244.444093,380 274.5,380" id="Fill-31" fill="#FEFEFE" fill-rule="nonzero"></path>
                <path d="M145.239741,112.247758 L212.760259,112.247758 L212.760259,163.263532 L190.207343,163.263532 L178.993521,185.742345 L167.792657,163.263532 L145.239741,163.263532 L145.239741,112.247758 Z M178.993521,193 L192.207343,166.51129 L216,166.51129 L216,109 L142,109 L142,166.51129 L165.792657,166.51129 L178.993521,193 Z" id="Fill-33" fill="#FEFEFE" fill-rule="nonzero"></path>
                <path d="M163.285681,131.140426 C163.285681,127.310638 166.492506,124.191489 170.430943,124.191489 C172.818538,124.191489 176.10422,127.834043 177.611252,130.12766 L178.995619,132.234043 L180.379986,130.12766 C181.89578,127.834043 185.181462,124.191489 187.569057,124.191489 C191.503113,124.191489 194.714319,127.310638 194.714319,131.140426 C194.714319,132.748936 194.131658,134.276596 192.98386,135.617021 L178.789716,153.693617 L165.081854,135.782979 C164.38967,134.621277 163.285681,132.33617 163.285681,131.140426 L163.285681,131.140426 Z M195.551072,137.612766 C197.150104,135.744681 198,133.506383 198,131.140426 C198,125.553191 193.316809,121 187.569057,121 C184.068711,121 180.791792,124.319149 178.995619,126.53617 C177.199447,124.319149 173.931289,121 170.430943,121 C164.67881,121 160,125.553191 160,131.140426 C160,133.582979 162.010837,137.008511 162.343786,137.53617 L178.754669,159 L195.551072,137.612766 Z" id="Fill-35" fill="#FEFEFE" fill-rule="nonzero"></path>
                <path d="M121.297715,355.27426 L121.297715,334.297079 C122.955366,333.134331 128.271282,329.871696 134.937062,330.51381 C140.74104,331.090846 146.184468,334.474962 151.122246,340.570709 C157.814408,348.835762 168.283552,355.747168 180.53786,355.747168 C186.869472,355.747168 193.684749,353.885904 200.702285,349.421474 L200.702285,355.27426 C200.702285,367.114327 190.936653,376.746042 178.928575,376.746042 L143.058234,376.746042 C131.063347,376.746042 121.297715,367.114327 121.297715,355.27426 L121.297715,355.27426 Z M124.503093,262.341226 C129.928933,268.410942 143.075822,272.064052 160.997802,272.064052 C178.915384,272.064052 192.062273,268.410942 197.488113,262.341226 C199.462345,267.868616 200.702285,273.782141 200.702285,278.4071 L200.702285,309.432503 C199.260085,311.575776 191.050974,323.081771 180.863234,323.081771 L180.828059,323.081771 C174.342553,323.064416 168.14285,318.348347 162.409223,309.072398 L162.149803,308.66023 C158.500332,302.755381 151.70704,291.757004 140.894933,290.494468 C134.686436,289.787275 128.108595,292.412134 121.297715,298.32566 L121.297715,278.4071 C121.297715,273.769126 122.528861,267.8556 124.503093,262.341226 L124.503093,262.341226 Z M144.047548,242.309862 L152.691958,254.770351 L152.57324,254.770351 C152.57324,260.6752 162.228948,261.312975 166.375275,261.312975 C173.252109,261.312975 178.431719,258.432138 178.431719,254.609822 C178.431719,252.028349 176.026586,249.824335 172.170459,248.700635 C172.086917,246.822017 171.51971,244.93906 170.367708,243.281711 L170.35012,243.255679 C185.594356,245.25144 196.938494,250.362323 196.938494,255.58601 C196.938494,261.95509 185.691089,268.810094 160.997802,268.810094 C136.300118,268.810094 125.052712,261.95509 125.052712,255.58601 C125.052712,251.364542 134.299504,244.986785 144.047548,242.309862 L144.047548,242.309862 Z M175.134005,254.609822 C175.134005,255.941776 172.034153,257.83341 167.140345,258.01997 C167.289841,257.928859 167.465719,257.89415 167.610819,257.794362 C169.743341,256.353944 171.123984,254.271411 171.770336,251.989302 C173.902858,252.71385 175.134005,253.77247 175.134005,254.609822 L175.134005,254.609822 Z M144.948924,234.114227 C145.309474,232.222593 146.391124,230.582598 147.987218,229.506623 C149.24035,228.656255 150.678153,228.252764 152.093972,228.252764 C154.411166,228.252764 156.697582,229.346094 158.104607,231.372225 L165.500281,242.027852 L165.438724,242.726369 C165.636587,242.743723 165.825656,242.761077 166.023519,242.778432 L167.645994,245.116943 C169.914822,248.388255 169.061813,252.87004 165.746511,255.108762 C164.159211,256.189076 162.237742,256.592567 160.294289,256.232463 C158.381615,255.876696 156.715169,254.813737 155.624725,253.234483 L146.092131,239.489765 C144.992893,237.91485 144.588374,236.005861 144.948924,234.114227 L144.948924,234.114227 Z M121.297715,302.768397 C128.174549,296.082599 134.616085,293.01954 140.508001,293.726733 C149.732808,294.802709 155.976481,304.920348 159.331356,310.352288 L159.590777,310.764456 C165.970755,321.081671 173.115803,326.318374 180.828059,326.335729 L180.863234,326.335729 C189.665934,326.335729 196.854952,319.511095 200.702285,314.894813 L200.702285,345.516725 C175.608876,363.122806 157.159262,342.822448 153.69886,338.540239 C148.167493,331.715605 141.950202,327.92366 135.218467,327.272868 C134.514955,327.199112 133.820236,327.168742 133.129915,327.168742 C128.038243,327.168742 123.847947,328.969265 121.297715,330.418361 L121.297715,302.768397 Z M178.928575,380 C192.756992,380 204,368.910512 204,355.27426 L204,347.169735 L204,304.191461 L204,278.4071 C204,272.719182 202.333555,265.222063 199.664605,258.718486 C200.020758,257.720606 200.236208,256.675001 200.236208,255.58601 C200.236208,246.791646 184.323636,241.359706 167.874636,239.685003 L160.82632,229.536993 C159.23902,227.241868 156.825093,225.697323 154.041822,225.185367 C151.258551,224.664734 148.453295,225.250446 146.12291,226.821023 C143.796922,228.387261 142.236004,230.769158 141.712767,233.515499 C141.330232,235.515598 141.554476,237.537391 142.315149,239.376961 C132.210951,242.383618 121.754998,249.386135 121.754998,255.58601 C121.754998,256.679339 121.970448,257.729283 122.330999,258.731502 C119.662048,265.226402 118,272.701827 118,278.4071 L118,355.27426 C118,368.910512 129.243008,380 143.058234,380 L178.928575,380 Z" id="Fill-37" fill="#FEFEFE" fill-rule="nonzero"></path>
                <path d="M196,277.906129 L194.586192,275 C194.252498,275.158594 161.080687,290.220746 128.413808,275 L127,277.906129 C138.424626,283.229747 149.89755,285 160.119122,285 C180.408591,285 195.767292,278.009001 196,277.906129" id="Fill-39" fill="#FEFEFE" fill-rule="nonzero"></path>
                <path d="M152.840962,236.355005 C153.064243,236.306824 153.287523,236.284923 153.497669,236.284923 C154.986205,236.284923 156.330266,237.327389 156.645485,238.838525 C157.004485,240.577428 155.892461,242.285669 154.158755,242.649218 C152.411914,243.017147 150.721988,241.89584 150.354232,240.165698 C149.995232,238.431175 151.107256,236.718554 152.840962,236.355005 M153.497669,246 C153.935474,246 154.390791,245.956199 154.832974,245.864217 C156.536034,245.505048 157.989545,244.506384 158.939582,243.052188 C159.88524,241.597993 160.213593,239.86347 159.86335,238.163989 C159.499972,236.464507 158.501777,235.005932 157.048265,234.059829 C155.594754,233.109346 153.856669,232.785218 152.166743,233.140006 C148.659928,233.880244 146.409612,237.331769 147.136368,240.835854 C147.77994,243.897549 150.489951,246 153.497669,246" id="Fill-41" fill="#FEFEFE" fill-rule="nonzero"></path>
                <path d="M158.916145,477 C163.952718,468.652475 170.367347,463.948099 178,463.025114 L177.564356,460 C168.824813,461.061229 161.565569,466.28199 156,475.532169 L158.916145,477 Z" id="Fill-43" fill="#FEFEFE" fill-rule="nonzero"></path>
                <path d="M225.278477,491.453578 L225.065644,491.761176 L225.065644,492.203077 C224.244715,494.269616 210.332367,497.969457 185.543802,497.969457 C160.755238,497.969457 146.838546,494.269616 146.026305,492.276727 L146.026305,491.86082 L145.822158,491.496901 C145.244468,490.439804 143.737261,486.921923 144.449601,484.725413 C144.627686,484.149208 144.949108,483.715971 145.43124,483.378047 C148.893039,484.287844 165.315952,488.295283 185.543802,488.295283 C205.758623,488.295283 221.690716,484.105884 225.456562,483.022793 C228.518756,485.847496 225.421814,491.215298 225.278477,491.453578 L225.278477,491.453578 Z M219.909866,509.866135 C213.459714,511.152848 184.801058,516.048422 151.164709,509.766491 L149.879022,497.609871 C161.702129,501.162411 184.258116,501.218732 185.543802,501.218732 C186.825146,501.218732 209.372445,501.162411 221.199896,497.609871 L219.909866,509.866135 Z M209.676493,606.785506 L209.68518,606.859156 C208.347371,607.994236 200.21627,610.021783 185.778353,610.021783 C170.823556,610.021783 162.627302,607.846935 161.771626,606.768176 L161.311211,605.945027 L158.044871,574.959942 C168.195716,576.792533 177.699375,577.468382 185.899972,577.468382 C198.974018,577.468382 208.812129,575.878403 213.02536,575.059586 L209.676493,606.785506 Z M206.70117,614.588098 C206.70117,616.329709 205.27649,617.750725 203.526045,617.750725 L168.134907,617.750725 C166.384462,617.750725 164.959782,616.329709 164.959782,614.588098 L164.959782,611.403808 C172.408947,613.197408 184.010534,613.271058 185.778353,613.271058 C187.550516,613.271058 199.256348,613.197408 206.70117,611.377814 L206.70117,614.588098 Z M151.525222,513.154401 C183.719517,518.977102 211.344411,514.774707 219.553696,513.241049 L213.38153,571.676008 C208.217065,572.759099 185.522085,576.840189 157.688701,571.641349 L154.009725,536.748469 L151.525222,513.154401 Z M178.255348,450.893963 C178.372623,455.273985 181.960385,458.809196 186.382105,458.809196 C190.842917,458.809196 191.920115,456.547701 194.052791,452.050705 L194.365526,451.201561 C208.938092,454.524486 220.239974,465.615344 223.788644,480.10711 C219.128029,481.376493 204.025552,485.046008 185.543802,485.046008 C167.092458,485.046008 151.929171,481.658097 147.207747,480.479694 C150.77379,465.346737 162.94438,453.753325 178.255348,450.893963 L178.255348,450.893963 Z M189.214091,429.305781 C189.887339,430.371543 190.721298,431.233684 191.776778,431.788227 C192.880036,432.360099 194.061478,432.572385 195.195141,432.572385 C196.172437,432.572385 197.071549,432.39909 197.909852,432.186805 L191.394547,450.049151 L191.107873,450.664348 C188.97954,455.144014 188.714584,455.559922 186.382105,455.559922 C183.767296,455.559922 181.630276,453.50638 181.495626,450.937287 L189.214091,429.305781 Z M196.050818,423.88599 C198.044501,424.925758 199.082607,427.009627 199.464838,427.936753 L199.347562,428.240019 C198.548352,428.629932 195.416662,430.003292 193.288329,428.907203 C192.059108,428.266013 191.281615,426.749685 190.929788,424.501186 L191.277271,423.526404 C193.101557,423.075838 194.704322,423.184147 196.050818,423.88599 L196.050818,423.88599 Z M227.228725,480.341058 C223.714804,464.28964 211.413908,451.933731 195.490502,448.151575 L202.909263,427.993074 L202.752895,427.477522 C202.705116,427.299895 201.415086,423.032514 197.58843,421.022296 C195.247264,419.796236 192.532553,419.670598 189.513795,420.658377 L188.749333,420.909655 L187.659105,423.972638 L187.550516,423.985635 C187.55486,424.05062 187.576578,424.106941 187.585265,424.176259 L179.323858,447.328425 C161.610915,449.901851 147.403206,463.288863 143.745948,480.726638 C142.634002,481.476138 141.756608,482.446588 141.343972,483.733301 C140.214652,487.238185 142.173587,491.518563 142.812087,492.75762 C143.055325,494.156975 144.43657,495.309384 146.460658,496.284166 L158.379323,609.185637 L159.625918,609.185637 C160.203609,609.683859 161.011507,610.121428 161.988802,610.502676 L161.702129,610.502676 L161.702129,614.588098 C161.702129,618.123309 164.586237,621 168.134907,621 L203.526045,621 C207.074714,621 209.958823,618.123309 209.958823,614.588098 L209.958823,610.502676 L209.546187,610.502676 C210.579949,610.099766 211.435625,609.63187 212.017659,609.098989 L212.764748,609.021007 L212.860305,607.729962 L213.012329,606.971797 L212.95152,606.807167 L216.456754,573.590914 L223.54975,509.05165 L223.263076,509.112304 L224.61826,496.284166 C226.629317,495.318049 228.006218,494.178636 228.262487,492.792279 C229.943436,489.750958 231.546201,483.806951 227.228725,480.341058 L227.228725,480.341058 Z" id="Fill-45" fill="#FEFEFE" fill-rule="nonzero"></path>
                <path d="M302.696186,494.64625 L302.696186,487.55262 C305.877146,488.069147 312.022968,488.495281 316.219588,485.120641 C319.275211,482.671445 320.675525,478.775974 320.390276,473.64084 L320.390276,446.897682 L317.148809,446.897682 L317.157453,473.731232 C317.37355,477.854836 316.3795,480.837776 314.19259,482.59827 C309.719365,486.192434 301.581121,484.031631 301.507648,484.010109 L299.454719,483.450539 L299.454719,506.77171 L288.58932,506.77171 L288.58932,495.59752 L285.347853,495.59752 L285.347853,506.77171 L279.945407,506.77171 L279.945407,495.59752 L276.70394,495.59752 L276.70394,506.77171 L271.301494,506.77171 L271.301494,495.59752 L268.060027,495.59752 L268.060027,506.77171 L260.972018,506.77171 L260.972018,483.954152 L259.351284,483.954152 C253.153599,483.954152 248.732237,482.482052 245.819239,479.451763 C240.658823,474.088497 241.065086,464.627453 241.428131,456.285551 C241.51457,454.266793 241.596687,452.329819 241.596687,450.552107 C241.596687,425.009872 262.463093,404.22829 288.109583,404.22829 L300.258603,404.22829 C325.900771,404.22829 346.758533,425.009872 346.758533,450.552107 C346.758533,478.698495 331.938544,493.522805 302.696186,494.64625 M300.258603,401 L288.109583,401 C260.673803,401 238.35522,423.227856 238.35522,450.552107 C238.35522,452.286775 238.273103,454.176401 238.186663,456.14781 C237.823619,464.692019 237.36117,475.32816 243.472416,481.681436 C246.70524,485.047467 251.498289,486.876831 257.730551,487.148008 L257.730551,510 L302.696186,510 L302.696186,497.874541 C334.090878,496.729574 350,480.816254 350,450.552107 C350,423.227856 327.681417,401 300.258603,401" id="Fill-47" fill="#FEFEFE" fill-rule="nonzero"></path>
                <path d="M294.5,462.759891 C291.048204,462.759891 288.240109,459.951796 288.240109,456.5 C288.240109,453.048204 291.048204,450.240109 294.5,450.240109 C297.951796,450.240109 300.759891,453.048204 300.759891,456.5 C300.759891,459.951796 297.951796,462.759891 294.5,462.759891 M294.5,447 C289.259663,447 285,451.259663 285,456.5 C285,461.740337 289.259663,466 294.5,466 C299.740337,466 304,461.740337 304,456.5 C304,451.259663 299.740337,447 294.5,447" id="Fill-49" fill="#FEFEFE" fill-rule="nonzero"></path>
                <path d="M262.5,462.759891 C259.048204,462.759891 256.240109,459.951796 256.240109,456.5 C256.240109,453.048204 259.048204,450.240109 262.5,450.240109 C265.951796,450.240109 268.759891,453.048204 268.759891,456.5 C268.759891,459.951796 265.951796,462.759891 262.5,462.759891 M272,456.5 C272,451.259663 267.740337,447 262.5,447 C257.259663,447 253,451.259663 253,456.5 C253,461.740337 257.259663,466 262.5,466 C267.740337,466 272,461.740337 272,456.5" id="Fill-51" fill="#FEFEFE" fill-rule="nonzero"></path>
                <path d="M270.970113,483.92623 L274.497951,476.872951 L278.029887,483.92623 L270.970113,483.92623 Z M266,487 L283,487 L274.497951,470 L266,487 Z" id="Fill-53" fill="#FEFEFE" fill-rule="nonzero"></path>
                <path d="M11.6074571,179.03477 C16.1016374,173.497647 42.0646676,134.004424 45.238548,129.170291 C46.5846518,128.671255 50.9412113,127.282635 53.6076149,129.395941 C56.2095088,131.465853 56.8331032,136.590729 55.4439929,144.002489 L46.803985,170.182317 C45.9051489,172.447504 45.9696587,174.33082 47.001815,175.784531 C47.4920892,176.461483 48.2059972,176.956179 49.0274216,177.368426 L46.3223121,178.244992 C55.7493391,207.809582 41.6130992,220.602244 41.0067074,221.131656 L43.1054251,223.605135 C43.7763267,223.023651 59.3747879,209.089716 49.5004932,177.611434 C53.0485303,179.091183 59.1468534,178.752707 66.9439337,178.292726 C78.6890116,177.589737 92.7908463,176.778262 100.527717,182.601788 C99.7966068,182.441229 99.0439929,182.350101 98.2655751,182.350101 L66.8880253,182.350101 C60.9746301,182.350101 56.157901,187.210271 56.157901,193.181337 C56.157901,197.672655 58.8845137,201.534755 62.7550996,203.170723 C58.8845137,204.806691 56.157901,208.668791 56.157901,213.160109 C56.157901,217.47351 58.6866838,221.17939 62.3164332,222.919504 C58.6866838,224.659619 56.157901,228.365499 56.157901,232.6789 C56.157901,236.432513 58.0630894,239.739165 60.9445255,241.687573 C58.0931939,243.414669 56.157901,246.534725 56.157901,250.127779 C56.157901,252.683708 57.1513514,254.992289 58.7296903,256.745422 L40.2927994,256.745422 C19.8561057,256.745422 3.22548826,239.969155 3.22548826,219.343808 C3.22548826,200.528005 6.85523772,190.330327 11.6074571,179.03477 M98.2655751,200.757996 L66.8880253,200.757996 C62.7550996,200.757996 59.3833892,197.360216 59.3833892,193.181337 C59.3833892,189.002459 62.7550996,185.604679 66.8880253,185.604679 L98.2655751,185.604679 C102.407102,185.604679 105.774512,189.002459 105.774512,193.181337 C105.774512,197.360216 102.407102,200.757996 98.2655751,200.757996 M105.774512,213.160109 C105.774512,217.338987 102.407102,220.736767 98.2655751,220.736767 L66.8880253,220.736767 C62.7550996,220.736767 59.3833892,217.338987 59.3833892,213.160109 C59.3833892,208.98123 62.7550996,205.58345 66.8880253,205.58345 L98.2655751,205.58345 C102.407102,205.58345 105.774512,208.98123 105.774512,213.160109 M105.774512,232.6789 C105.774512,236.857778 102.407102,240.255558 98.2655751,240.255558 L94.0509371,240.255558 L66.8880253,240.255558 C62.7550996,240.255558 59.3833892,236.857778 59.3833892,232.6789 C59.3833892,228.500021 62.7550996,225.102241 66.8880253,225.102241 L98.2655751,225.102241 C102.407102,225.102241 105.774512,228.500021 105.774512,232.6789 M94.0509371,256.745422 L66.3160387,256.745422 L65.9375814,256.745422 C62.3250345,256.745422 59.3833892,253.777246 59.3833892,250.127779 C59.3833892,246.478312 62.3250345,243.510136 65.9375814,243.510136 L66.8880253,243.510136 L94.0509371,243.510136 C97.6634839,243.510136 100.60943,246.478312 100.60943,250.127779 C100.60943,253.777246 97.6634839,256.745422 94.0509371,256.745422 M40.2927994,260 L65.9375814,260 L66.3160387,260 L94.0509371,260 C99.4439534,260 103.834918,255.573773 103.834918,250.127779 C103.834918,247.393933 102.72535,244.920454 100.936279,243.132605 C105.56378,241.921902 109,237.712648 109,232.6789 C109,228.365499 106.471217,224.659619 102.845768,222.919504 C106.471217,221.17939 109,217.47351 109,213.160109 C109,208.668791 106.277688,204.806691 102.402801,203.170723 C106.277688,201.534755 109,197.672655 109,193.181337 C109,190.525601 108.015151,188.121553 106.436812,186.233897 L107.382955,185.739201 C100.794358,173.033328 81.9231012,174.157242 66.7590057,175.042487 C59.0565398,175.502468 51.1132373,175.966788 49.6252121,173.883857 C49.28116,173.393501 49.3284672,172.555989 49.8273427,171.301892 L58.5619649,144.822643 C60.260722,135.800952 59.2672717,129.756115 55.603117,126.840013 C50.8767015,123.07772 43.8107319,126.228152 43.5096863,126.362674 L43.0882225,126.55361 L42.8301835,126.948498 C42.5334385,127.404139 13.0094693,172.369394 8.98836062,177.121078 L8.73462221,177.537664 C3.78887355,189.267164 0,199.790301 0,219.343808 C0,241.761343 18.0756362,260 40.2927994,260" id="Fill-55" fill="#FEFEFE" fill-rule="nonzero"></path>
                <path d="M185.896434,225.027078 L195.07995,207.715208 C195.82765,206.431553 197.314254,205.436066 198.009175,205.086773 C199.055955,204.549734 200.199497,204.274665 201.351835,204.274665 C202.108331,204.274665 202.860429,204.392551 203.599333,204.628325 C205.464185,205.222124 206.985975,206.505778 207.878817,208.234782 C208.780455,209.968152 208.94319,211.941662 208.34503,213.792918 C207.742471,215.648541 206.453788,217.15487 204.707689,218.041203 C203.797254,218.504017 193.91002,222.123574 185.896434,225.027078 M211.48537,214.792772 C212.356221,212.107576 212.114318,209.247734 210.816838,206.741552 C209.519359,204.226637 207.311444,202.37538 204.606529,201.510878 C201.901614,200.646376 199.029566,200.886516 196.496182,202.174536 C196.025571,202.41031 193.575754,203.741992 192.194708,206.13902 L179,231 L183.011191,229.554797 C185.219105,228.755788 204.650511,221.752449 206.211885,220.957806 C208.745269,219.665419 210.610121,217.477967 211.48537,214.792772" id="Fill-57" fill="#FEFEFE" fill-rule="nonzero"></path>
                <path d="M143.704229,212.13571 L136.993342,208.735191 L130.295771,212.13571 L131.578474,204.941154 L126.15029,199.846792 L133.646776,198.798833 L136.993342,192.254439 L140.348786,198.798833 L147.84971,199.846792 L142.421526,204.941154 L143.704229,212.13571 Z M142.559117,195.86455 L136.993342,185 L131.436444,195.86455 L119,197.609721 L127.996671,206.061828 L125.870669,218 L136.993342,212.362411 L148.124892,218 L146.003329,206.061828 L155,197.609721 L142.559117,195.86455 Z" id="Fill-59" fill="#FEFEFE" fill-rule="nonzero"></path>
                <path d="M255.701443,132.134949 L248.99778,128.738268 L242.294118,132.134949 L243.572697,124.939461 L238.152053,119.848717 L245.641509,118.796344 L248.99778,112.25538 L252.345172,118.796344 L259.847947,119.848717 L254.418424,124.939461 L255.701443,132.134949 Z M254.556049,115.86168 L248.99778,105 L243.430633,115.86168 L231,117.607078 L239.990011,126.06028 L237.872364,138 L248.99778,132.365958 L260.123196,138 L258.00111,126.06028 L267,117.607078 L254.556049,115.86168 Z" id="Fill-61" fill="#FEFEFE" fill-rule="nonzero"></path>
                <g id="Group-65" transform="translate(316.000000, 252.000000)">
                    <g id="Fill-63-Clipped">
                        <mask id="mask-4" fill="white">
                            <use xlink:href="#path-3"></use>
                        </mask>
                        <g id="path-4"></g>
                        <path d="M24.6852918,27.9620625 L18.0712632,24.4708216 L11.4528545,27.9620625 L12.7187183,20.5662599 L7.3617931,15.3293985 L14.7598688,14.2521264 L18.0712632,7.52467222 L21.3738974,14.2521264 L28.7763532,15.3293985 L23.4194281,20.5662599 L24.6852918,27.9620625 Z M23.5552128,11.2357646 L18.0712632,0.0673112129 L12.5785534,11.2357646 L0.305369218,13.0297524 L9.18393608,21.7182815 L7.08584357,33.9903892 L18.0712632,28.1995021 L29.0479226,33.9903892 L26.9542103,21.7182815 L35.8327771,13.0297524 L23.5552128,11.2357646 Z" id="Fill-63" fill="#FEFEFE" fill-rule="nonzero" mask="url(#mask-4)"></path>
                    </g>
                </g>
                <path d="M105.090352,442.536569 L107.294934,445 C107.755728,444.624003 118.475963,435.708112 117.983546,424.01762 C117.77122,417.23238 114.098421,411.168883 107.064537,406 L105,408.575798 C111.189095,413.118019 114.414652,418.347407 114.595356,424.129987 C115.024527,434.286237 105.496935,442.208112 105.090352,442.536569" id="Fill-70" fill="#FEFEFE" fill-rule="nonzero"></path>
                <path d="M117.168116,397 L115,399.387323 C134.359072,419.261016 123.522653,442.983658 115.08739,452.749981 L117.388673,455 C126.531382,444.405422 138.258352,418.654219 117.168116,397" id="Fill-71" fill="#FEFEFE" fill-rule="nonzero"></path>
                <path d="M126.524644,390 L124,392.242306 C154.249904,423.546654 124.394046,459.559844 124.091639,459.920371 L126.758322,462 C127.079057,461.617489 158.795179,423.40596 126.524644,390" id="Fill-72" fill="#FEFEFE" fill-rule="nonzero"></path>
                <path d="M57.2789274,414.72788 L83.3048674,414.72788 L95.7210726,403.408784 L95.7210726,449.591216 L83.3048674,438.27212 L57.2789274,438.27212 L57.2789274,414.72788 Z M99,457 L99,396 L82.0238997,411.476512 L54,411.476512 L54,441.523488 L82.0238997,441.523488 L99,457 Z" id="Fill-73" fill="#FEFEFE" fill-rule="nonzero"></path>
                <path d="M337.924734,187.518831 C336.705192,190.62041 333.042227,197.458675 323.160033,203.178979 C320.655849,204.627542 317.904285,205.871654 314.987801,206.872164 L312.605138,207.689971 L314.31944,209.530039 C316.801924,212.192264 318.928527,215.058941 320.655849,218.056119 C326.319557,227.887212 326.276157,234.834228 325.889897,237.740056 L310.691195,233.098562 L308.521192,248.919661 C305.426767,247.6973 298.599937,244.025865 292.897169,234.120821 C291.803488,232.224203 290.805286,230.118784 289.928605,227.856762 L288.413943,223.967825 L286.894941,227.856762 C286.013919,230.118784 285.015718,232.224203 283.922036,234.120821 C278.223608,244.025865 271.392438,247.6973 268.298014,248.919661 L266.136691,233.098562 L250.929309,237.740056 C250.538708,234.825528 250.503988,227.878512 256.167696,218.056119 C257.669338,215.437395 259.535541,212.86652 261.705544,210.421797 L263.441547,208.451229 L260.915663,207.759572 C257.005317,206.689462 253.177432,205.106047 249.844307,203.178979 C239.962113,197.458675 236.299148,190.62041 235.079606,187.518831 L250.859869,185.34816 L246.233422,170.109966 C249.132546,169.718462 256.067876,169.674962 265.87195,175.351765 C266.579371,175.760669 267.265092,176.191323 267.942133,176.639378 L271.036558,178.662147 L270.441977,175.012462 C270.020996,172.424188 269.808336,169.914214 269.808336,167.547792 C269.808336,156.107183 273.883602,149.512521 275.953785,146.902496 L285.718799,159.517616 L296.577495,147.881256 C298.365577,150.208528 301.863622,156.202884 301.863622,167.547792 C301.863622,170.305718 301.594542,173.154995 301.069401,176.021672 L300.34028,179.971509 L303.612645,177.648587 C304.754066,176.83513 305.925868,176.052122 307.12805,175.351765 C316.945144,169.670612 323.863114,169.709762 326.779598,170.109966 L322.140131,185.34816 L337.924734,187.518831 Z M330.854864,167.878395 L329.405302,167.35204 C329.032061,167.221539 320.065608,164.102559 305.500547,172.528589 C305.274867,172.66344 305.044847,172.798291 304.814826,172.937493 C305.018807,171.119175 305.118627,169.313908 305.118627,167.547792 C305.118627,150.695732 297.948937,144.470823 297.645136,144.218521 L296.455974,143.222362 L285.944479,154.493318 L276.283625,142 L274.977283,143.139711 C274.638763,143.439864 266.553331,150.717482 266.553331,167.547792 C266.553331,169.026806 266.627111,170.55367 266.779012,172.115335 C252.652291,164.20261 243.972279,167.221539 243.607718,167.35204 L242.158156,167.878395 L246.632703,182.638084 L231,184.787005 L231.33852,186.483521 C231.425321,186.931575 233.677784,197.584826 248.216805,206.002155 C251.098569,207.668221 254.310174,209.095035 257.634618,210.182545 C256.007116,212.209664 254.566234,214.297684 253.346692,216.424854 C244.93576,231.019242 248.047545,239.997727 248.182085,240.371831 L248.707226,241.824744 L263.432867,237.335502 L265.57683,253 L267.265092,252.669397 C267.712113,252.578046 278.349468,250.329075 286.74304,235.752087 C287.328941,234.738527 287.880122,233.672767 288.413943,232.563507 C288.939084,233.672767 289.498944,234.738527 290.076165,235.752087 C298.474077,250.329075 309.102753,252.578046 309.554113,252.669397 L311.251056,253 L313.395019,237.335502 L328.10764,241.824744 L328.641461,240.371831 C328.780341,239.997727 331.879105,231.019242 323.481193,216.424854 C322.014271,213.88878 320.286949,211.439707 318.316586,209.121135 C320.599429,208.220676 322.769432,207.176667 324.787535,206.002155 C339.330896,197.584826 341.579019,186.931575 341.67016,186.483521 L342,184.787005 L326.371637,182.638084 L330.854864,167.878395 Z" id="Fill-74" fill="#FEFEFE" fill-rule="nonzero"></path>
                <path d="M286,208.737712 C282.280992,208.737712 279.262288,205.719008 279.262288,202 C279.262288,198.289691 282.280992,195.262288 286,195.262288 C289.714659,195.262288 292.737712,198.289691 292.737712,202 C292.737712,205.719008 289.714659,208.737712 286,208.737712 M286,192 C280.484559,192 276,196.488908 276,202 C276,207.515441 280.484559,212 286,212 C291.515441,212 296,207.515441 296,202 C296,196.488908 291.515441,192 286,192" id="Fill-75" fill="#FEFEFE" fill-rule="nonzero"></path>
                <path d="M68.3977433,374.68626 L85.5980254,374.68626 C84.5698166,379.448869 79.9449929,388.80911 77,394.353187 C74.0550071,388.80911 69.425952,379.448869 68.3977433,374.68626 L68.3977433,374.68626 Z M77,276.256114 C83.5712271,276.256114 85.5895628,277.198216 85.7842031,280.445647 C84.9337094,281.487603 82.3229901,284.283519 78.4809591,284.678594 C75.2016925,284.991181 71.7616361,283.480345 68.2284908,280.245938 C68.4908322,277.159143 70.5641749,276.256114 77,276.256114 L77,276.256114 Z M68.1734838,284.409422 C70.5895628,286.219822 73.0056417,287.300851 75.4132581,287.717634 L75.4132581,370.956924 L78.5867419,370.956924 L78.5867419,287.926025 C78.6713681,287.917342 78.7559944,287.921684 78.8448519,287.913001 C81.8067701,287.591731 84.1551481,286.237188 85.8265162,284.891327 L85.8265162,371.430146 L68.1734838,371.430146 L68.1734838,284.409422 Z M78.3794076,398.512329 C79.4626234,396.554319 89,379.18838 89,373.058203 L89,280.970966 C89,273 81.4894217,273 77,273 C72.5148096,273 65,273 65,280.970966 L65,373.058203 C65,379.18838 74.528914,396.554319 75.6205924,398.512329 L77,401 L78.3794076,398.512329 Z" id="Fill-76" fill="#FEFEFE" fill-rule="nonzero"></path>
                <path d="M115.411032,82.8452607 C115.39284,80.5906692 115.374649,78.4669622 116.211453,77.6858771 C116.575281,77.3396665 117.257458,77.1665611 118.235245,77.1665611 C122.296473,77.1665611 125.589114,80.2317923 125.589114,83.997889 C125.589114,87.7639856 122.296473,90.8334389 118.235245,90.8334389 C117.257458,90.8334389 116.575281,90.6561115 116.211453,90.3141229 C115.374649,89.5330378 115.39284,87.4051087 115.411032,85.1547393 L115.420127,83.997889 L115.411032,82.8452607 Z M113.78745,92.5391598 C114.833455,93.5186827 116.288766,94 118.235245,94 C124.170186,94 129,89.5119274 129,83.997889 C129,78.4880726 124.170186,74 118.235245,74 C116.288766,74 114.833455,74.4770952 113.78745,75.4566181 C111.954668,77.1707832 111.972859,79.8095841 112.009242,82.8705932 L112.009242,83.997889 L112.009242,85.1251847 C111.972859,88.1861938 111.954668,90.8249947 113.78745,92.5391598 L113.78745,92.5391598 Z" id="Fill-78" fill="#FEFEFE" fill-rule="nonzero"></path>
            </g>
        </g>
    </g>
</svg>